<?xml version="1.0" encoding="UTF-8"?> <svg xmlns="http://www.w3.org/2000/svg" xmlns:xlink="http://www.w3.org/1999/xlink" version="1.1" id="Layer_1" x="0px" y="0px" viewBox="0 0 1270 260" xml:space="preserve"> <linearGradient id="SVGID_1_" gradientUnits="userSpaceOnUse" x1="144" y1="204" x2="144" y2="3"> <stop offset="0" style="stop-color:#182D3E"></stop> <stop offset="1" style="stop-color:#016BB7"></stop> </linearGradient> <path fill="url(#SVGID_1_)" d="M238,143.7C238,143.7,238,143.7,238,143.7c0,0.5,0,0.9,0,1.3c0,27.6-42.1,59-94,59 c-51.9,0-94-31.4-94-59c0-0.4,0-0.8,0-1.3c0,0,0,0,0,0c0-0.2,0-0.5,0-0.7V15c0-6.6,5.4-12,12-12h164c6.6,0,12,5.4,12,12v128 C238,143.2,238,143.5,238,143.7z"></path> <g> <path fill="#0D4F81" d="M369.2,83V18.2h27.4c0.6,0,1.5,0,2.5,0.1c1.1,0,2,0.1,2.9,0.3c3.9,0.6,7,1.9,9.5,3.8c2.5,2,4.3,4.4,5.5,7.4 c1.2,3,1.8,6.2,1.8,9.9c0,5.4-1.3,10.1-4,13.9c-2.7,3.9-6.9,6.2-12.7,7.1l-5.4,0.4h-15.1v22H369.2z M381.5,49.6h14.6 c0.6,0,1.3,0,2.1-0.1c0.7-0.1,1.4-0.2,2.1-0.4c1.6-0.5,2.9-1.2,3.8-2.3s1.5-2.3,1.9-3.6c0.3-1.3,0.5-2.5,0.5-3.7s-0.2-2.4-0.5-3.7 c-0.3-1.3-1-2.5-1.9-3.6c-0.9-1.1-2.2-1.8-3.8-2.3c-0.6-0.2-1.3-0.3-2.1-0.4c-0.8-0.1-1.4-0.1-2.1-0.1h-14.6V49.6z M405.8,83 L393,56.6l12.6-2.4l14,28.8H405.8z"></path> <path fill="#0D4F81" d="M430.4,27.6V16.9h12.2v10.8H430.4z M430.4,83V34.4h12.2V83H430.4z"></path> <path fill="#0D4F81" d="M452.6,43.9v-9.5h31.1v9.5H452.6z M460.2,83V34.6c0-1.2,0-2.6,0.1-4.2c0.1-1.6,0.3-3.1,0.7-4.7 c0.4-1.6,1.2-3,2.4-4.3c1.5-1.7,3.1-2.8,4.9-3.4c1.8-0.6,3.5-0.9,5.1-1c1.6,0,3.1-0.1,4.2-0.1h6v9.9h-5.6c-1.9,0-3.3,0.5-4.3,1.5 c-0.9,1-1.4,2.1-1.4,3.5V83H460.2z"></path> <path fill="#0D4F81" d="M485.5,43.9v-9.5h34.6v9.5H485.5z M520.1,83c-3.4,0.6-6.7,0.9-9.9,0.8c-3.2-0.1-6.1-0.6-8.6-1.7 c-2.5-1.1-4.5-2.8-5.8-5.2c-1.2-2.2-1.8-4.5-1.9-6.8c-0.1-2.3-0.1-4.9-0.1-7.8V20.9H506v40.8c0,1.9,0,3.6,0.1,5.1 c0,1.5,0.4,2.7,0.9,3.6c1.1,1.7,2.8,2.6,5.2,2.8c2.4,0.2,5,0,7.9-0.4V83z"></path> <path fill="#0D4F81" d="M562.8,83L543,18.2h12.6l16.2,53.3l16.5-53.3h12.6L581.1,83H562.8z"></path> <path fill="#0D4F81" d="M617.1,84.4c-3.5,0-6.4-0.7-8.8-2c-2.4-1.3-4.2-3.1-5.5-5.4c-1.2-2.2-1.9-4.7-1.9-7.4c0-2.3,0.3-4.3,1-6.2 c0.7-1.9,1.8-3.5,3.4-4.9c1.5-1.4,3.6-2.6,6.2-3.6c1.8-0.7,3.9-1.2,6.4-1.8c2.5-0.5,5.3-1,8.5-1.5c3.1-0.5,6.6-1,10.4-1.6l-4.4,2.4 c0-2.9-0.7-5-2.1-6.3s-3.7-2-6.9-2c-1.8,0-3.7,0.4-5.6,1.3c-2,0.9-3.3,2.4-4.1,4.6l-11.1-3.5c1.2-4,3.5-7.3,6.9-9.8 c3.4-2.5,8-3.8,13.9-3.8c4.3,0,8.1,0.7,11.4,2c3.3,1.3,5.9,3.6,7.6,6.8c1,1.8,1.5,3.6,1.7,5.4c0.2,1.8,0.3,3.8,0.3,6V83h-10.7V73 l1.5,2.1c-2.4,3.3-4.9,5.6-7.7,7.1C624.8,83.6,621.3,84.4,617.1,84.4z M619.7,74.7c2.3,0,4.1-0.4,5.7-1.2c1.5-0.8,2.8-1.7,3.7-2.7 c0.9-1,1.5-1.9,1.9-2.6c0.6-1.3,1-2.9,1.1-4.6c0.1-1.8,0.2-3.2,0.2-4.4l3.6,0.9c-3.6,0.6-6.6,1.1-8.8,1.5c-2.3,0.4-4.1,0.8-5.4,1.1 c-1.4,0.3-2.6,0.7-3.6,1.1c-1.2,0.5-2.2,1-2.9,1.6c-0.7,0.6-1.3,1.2-1.6,1.8c-0.3,0.7-0.5,1.4-0.5,2.2c0,1.1,0.3,2.1,0.8,2.9 c0.6,0.8,1.3,1.4,2.4,1.8C617.1,74.5,618.3,74.7,619.7,74.7z"></path> <path fill="#0D4F81" d="M657,83V16.9h12.2V83H657z"></path> <path fill="#0D4F81" d="M683.6,83V16.9h12.2V83H683.6z"></path> <path fill="#0D4F81" d="M731.9,84.4c-5,0-9.4-1.1-13.2-3.2s-6.8-5.1-8.9-8.9c-2.1-3.8-3.2-8.1-3.2-12.9c0-5.3,1-9.9,3.1-13.9 s5-7,8.7-9.2c3.7-2.2,7.9-3.3,12.7-3.3c5.1,0,9.4,1.2,13,3.6c3.6,2.4,6.2,5.8,7.9,10.1c1.7,4.4,2.3,9.5,1.8,15.3h-12.1v-4.5 c0-5-0.8-8.5-2.4-10.7c-1.6-2.2-4.1-3.3-7.7-3.3c-4.2,0-7.2,1.3-9.2,3.8s-2.9,6.3-2.9,11.2c0,4.5,1,8,2.9,10.5s4.9,3.7,8.7,3.7 c2.4,0,4.5-0.5,6.2-1.6c1.7-1,3-2.6,3.9-4.5l12.2,3.5c-1.8,4.4-4.7,7.9-8.7,10.4C740.9,83.1,736.6,84.4,731.9,84.4z M715.8,62.1V53 h32.2v9.1H715.8z"></path> <path fill="#0D4F81" d="M769.4,104.6l9.4-25.7l0.2,7.6l-21.2-52h12.7l14.2,36.8h-2.9l14.1-36.8h12.2l-27.5,70.2H769.4z"></path> <path fill="#0D4F81" d="M833.4,83V18.2h12.2V83H833.4z"></path> <path fill="#0D4F81" d="M859,83V34.4h10.9v16.1h1.5V83H859z M892.2,83V60c0-1.1-0.1-2.5-0.2-4.3c-0.1-1.7-0.5-3.5-1.1-5.2 c-0.6-1.7-1.7-3.2-3.1-4.4s-3.4-1.8-6.1-1.8c-1,0-2.2,0.2-3.4,0.5c-1.2,0.3-2.3,1-3.4,1.9c-1,0.9-1.9,2.3-2.6,4.2 c-0.7,1.8-1,4.3-1,7.3l-7-3.3c0-3.8,0.8-7.4,2.3-10.8c1.6-3.4,3.9-6.1,7-8.1s7.1-3.1,11.9-3.1c3.8,0,6.9,0.6,9.3,1.9 c2.4,1.3,4.3,2.9,5.6,4.9c1.3,2,2.3,4,2.9,6.2c0.6,2.1,0.9,4.1,1,5.9c0.1,1.8,0.2,3.1,0.2,3.9V83H892.2z"></path> <path fill="#0D4F81" d="M935.3,84.4c-6.1,0-11.1-1.4-14.8-4.2c-3.8-2.8-6.1-6.7-6.9-11.8l12.5-1.9c0.5,2.3,1.6,4.1,3.4,5.4 c1.8,1.3,4,1.9,6.7,1.9c2.2,0,3.9-0.4,5.1-1.3c1.2-0.9,1.8-2,1.8-3.6c0-1-0.2-1.7-0.7-2.3c-0.5-0.6-1.6-1.2-3.2-1.7 c-1.7-0.6-4.3-1.3-7.8-2.3c-4-1-7.1-2.2-9.5-3.4c-2.4-1.3-4.1-2.8-5.1-4.5c-1-1.8-1.6-3.9-1.6-6.4c0-3.1,0.8-5.8,2.4-8.1 c1.6-2.3,3.8-4.1,6.7-5.3c2.9-1.2,6.3-1.9,10.2-1.9c3.8,0,7.2,0.6,10.1,1.8c2.9,1.2,5.3,2.8,7.1,5c1.8,2.2,2.9,4.7,3.4,7.7 l-12.5,2.3c-0.2-1.8-1-3.2-2.3-4.3c-1.3-1-3.2-1.7-5.5-1.8c-2.3-0.1-4.1,0.2-5.4,0.9c-1.4,0.8-2,1.8-2,3.2c0,0.8,0.3,1.5,0.9,2.1 c0.6,0.6,1.8,1.2,3.6,1.8c1.8,0.6,4.7,1.4,8.4,2.3c3.7,1,6.7,2.1,8.9,3.4c2.2,1.3,3.9,2.8,4.9,4.6c1,1.8,1.5,3.9,1.5,6.5 c0,5-1.8,8.9-5.4,11.7C946.7,82.9,941.7,84.4,935.3,84.4z"></path> <path fill="#0D4F81" d="M960.2,43.9v-9.5h34.6v9.5H960.2z M994.7,83c-3.4,0.6-6.7,0.9-9.9,0.8c-3.2-0.1-6.1-0.6-8.6-1.7 s-4.5-2.8-5.8-5.2c-1.2-2.2-1.8-4.5-1.9-6.8c-0.1-2.3-0.1-4.9-0.1-7.8V20.9h12.2v40.8c0,1.9,0,3.6,0.1,5.1c0,1.5,0.4,2.7,0.9,3.6 c1.1,1.7,2.8,2.6,5.2,2.8c2.4,0.2,5,0,7.9-0.4V83z"></path> <path fill="#0D4F81" d="M1006.4,27.6V16.9h12.2v10.8H1006.4z M1006.4,83V34.4h12.2V83H1006.4z"></path> <path fill="#0D4F81" d="M1026.8,43.9v-9.5h34.6v9.5H1026.8z M1061.3,83c-3.4,0.6-6.7,0.9-9.9,0.8c-3.2-0.1-6.1-0.6-8.6-1.7 s-4.5-2.8-5.8-5.2c-1.2-2.2-1.8-4.5-1.9-6.8c-0.1-2.3-0.1-4.9-0.1-7.8V20.9h12.2v40.8c0,1.9,0,3.6,0.1,5.1c0,1.5,0.4,2.7,0.9,3.6 c1.1,1.7,2.8,2.6,5.2,2.8c2.4,0.2,5,0,7.9-0.4V83z"></path> <path fill="#0D4F81" d="M1090.2,84.4c-3.8,0-6.9-0.6-9.3-1.9c-2.4-1.3-4.3-2.9-5.6-4.9c-1.3-2-2.3-4-2.9-6.2 c-0.6-2.1-0.9-4.1-1-5.9c-0.1-1.8-0.2-3.1-0.2-3.9V34.4h12.4v23c0,1.1,0.1,2.5,0.2,4.3c0.1,1.7,0.5,3.5,1.1,5.2 c0.6,1.7,1.7,3.2,3.1,4.4s3.4,1.8,6.1,1.8c1,0,2.2-0.2,3.4-0.5c1.2-0.3,2.3-1,3.4-1.9c1-0.9,1.9-2.3,2.6-4.2c0.7-1.8,1-4.3,1-7.3 l7,3.3c0,3.8-0.8,7.4-2.3,10.8c-1.6,3.4-3.9,6.1-7,8.1S1095,84.4,1090.2,84.4z M1106,83V66.9h-1.5V34.4h12.3V83H1106z"></path> <path fill="#0D4F81" d="M1124,43.9v-9.5h34.6v9.5H1124z M1158.5,83c-3.4,0.6-6.7,0.9-9.9,0.8c-3.2-0.1-6.1-0.6-8.6-1.7 s-4.5-2.8-5.8-5.2c-1.2-2.2-1.8-4.5-1.9-6.8c-0.1-2.3-0.1-4.9-0.1-7.8V20.9h12.2v40.8c0,1.9,0,3.6,0.1,5.1c0,1.5,0.4,2.7,0.9,3.6 c1.1,1.7,2.8,2.6,5.2,2.8c2.4,0.2,5,0,7.9-0.4V83z"></path> <path fill="#0D4F81" d="M1189.2,84.4c-5,0-9.4-1.1-13.2-3.2c-3.8-2.1-6.8-5.1-8.9-8.9c-2.1-3.8-3.2-8.1-3.2-12.9 c0-5.3,1-9.9,3.2-13.9c2.1-3.9,5-7,8.7-9.2c3.7-2.2,7.9-3.3,12.7-3.3c5.1,0,9.4,1.2,13,3.6c3.6,2.4,6.2,5.8,7.9,10.1 c1.7,4.4,2.3,9.5,1.8,15.3h-12.1v-4.5c0-5-0.8-8.5-2.4-10.7c-1.6-2.2-4.1-3.3-7.7-3.3c-4.2,0-7.2,1.3-9.2,3.8 c-2,2.5-2.9,6.3-2.9,11.2c0,4.5,1,8,2.9,10.5c2,2.5,4.9,3.7,8.7,3.7c2.4,0,4.5-0.5,6.2-1.6c1.7-1,3-2.6,3.9-4.5l12.2,3.5 c-1.8,4.4-4.7,7.9-8.7,10.4S1193.9,84.4,1189.2,84.4z M1173.1,62.1V53h32.2v9.1H1173.1z"></path> <path fill="#0D4F81" d="M381.4,184.3c-4.9,0-9.2-1.1-12.9-3.3c-3.7-2.2-6.6-5.2-8.6-9.1c-2.1-3.9-3.1-8.3-3.1-13.3 c0-5.1,1-9.5,3.1-13.4c2.1-3.9,5-6.9,8.7-9s7.9-3.2,12.7-3.2c4.9,0,9.2,1.1,12.9,3.3c3.7,2.2,6.6,5.2,8.7,9.1 c2.1,3.9,3.1,8.3,3.1,13.3c0,5-1,9.5-3.1,13.3c-2.1,3.9-5,6.9-8.7,9C390.5,183.3,386.3,184.3,381.4,184.3z M381.4,172.9 c3.9,0,6.9-1.3,8.8-4c1.9-2.7,2.9-6.1,2.9-10.2c0-4.3-1-7.8-2.9-10.4c-2-2.6-4.9-3.9-8.8-3.9c-2.7,0-4.9,0.6-6.6,1.8 c-1.7,1.2-3,2.9-3.8,5c-0.8,2.1-1.2,4.6-1.2,7.4c0,4.4,1,7.8,2.9,10.4C374.7,171.6,377.6,172.9,381.4,172.9z"></path> <path fill="#0D4F81" d="M412.4,143.8v-9.4h31.1v9.4H412.4z M420,183v-48.4c0-1.2,0-2.6,0.1-4.2c0.1-1.6,0.3-3.1,0.7-4.7 c0.4-1.6,1.2-3,2.4-4.3c1.5-1.7,3.1-2.8,4.9-3.4c1.8-0.6,3.5-0.9,5.1-1c1.6,0,3.1-0.1,4.2-0.1h6v9.9h-5.6c-1.9,0-3.3,0.5-4.3,1.5 c-0.9,1-1.4,2.1-1.4,3.5V183H420z"></path> <path fill="#0D4F81" d="M468.7,183v-64.8h25.9c4.6,0,8.4,0.9,11.2,2.8c2.9,1.8,4.9,4.2,6.3,7c1.3,2.8,2,5.6,2,8.5 c0,3.6-0.8,6.6-2.5,9c-1.6,2.4-3.9,4-6.7,4.8V148c4,0.8,7.1,2.7,9.1,5.6c2,2.9,3,6.2,3,9.8c0,3.9-0.7,7.3-2.1,10.2 c-1.4,2.9-3.6,5.2-6.5,6.9c-2.9,1.7-6.6,2.5-11,2.5H468.7z M481.1,143.5h13.3c1.4,0,2.6-0.2,3.7-0.7c1.1-0.5,1.9-1.2,2.6-2.2 c0.6-1,0.9-2.3,0.9-3.9c0-2-0.6-3.6-1.8-5c-1.2-1.3-3-2-5.4-2h-13.3V143.5z M481.1,171.5h15c1.6,0,3.1-0.4,4.4-1.1 c1.3-0.7,2.3-1.7,3-3c0.7-1.3,1.1-2.8,1.1-4.5c0-1.5-0.3-2.9-0.9-4.1s-1.6-2.2-2.9-2.9c-1.3-0.7-2.9-1.1-4.7-1.1h-15V171.5z"></path> <path fill="#0D4F81" d="M544.1,184.4c-3.8,0-6.9-0.6-9.3-1.9c-2.4-1.3-4.3-2.9-5.6-4.9c-1.3-2-2.3-4-2.9-6.2 c-0.6-2.1-0.9-4.1-1-5.9c-0.1-1.8-0.2-3.1-0.2-3.9v-27.3h12.4v22.9c0,1.1,0.1,2.5,0.2,4.3c0.1,1.7,0.5,3.5,1.1,5.2 c0.6,1.7,1.7,3.2,3.1,4.4c1.4,1.2,3.4,1.8,6.1,1.8c1,0,2.2-0.2,3.4-0.5c1.2-0.3,2.3-1,3.4-1.9c1-0.9,1.9-2.3,2.6-4.2 c0.7-1.8,1-4.3,1-7.3l7,3.3c0,3.8-0.8,7.4-2.3,10.8c-1.6,3.4-3.9,6.1-7,8.1C552.8,183.4,548.9,184.4,544.1,184.4z M559.9,183v-16.1 h-1.5v-32.5h12.3V183H559.9z"></path> <path fill="#0D4F81" d="M602.3,184.3c-6.1,0-11.1-1.4-14.8-4.2c-3.8-2.8-6.1-6.7-6.9-11.8l12.5-1.9c0.5,2.3,1.6,4.1,3.4,5.4 c1.8,1.3,4,1.9,6.7,1.9c2.2,0,3.9-0.4,5.1-1.3c1.2-0.9,1.8-2,1.8-3.6c0-1-0.2-1.7-0.7-2.3c-0.5-0.6-1.6-1.2-3.2-1.7 s-4.3-1.3-7.8-2.3c-4-1-7.1-2.2-9.5-3.4c-2.4-1.3-4.1-2.8-5.1-4.5c-1.1-1.8-1.6-3.9-1.6-6.4c0-3.1,0.8-5.8,2.4-8.1 c1.6-2.3,3.8-4.1,6.7-5.3c2.9-1.2,6.3-1.9,10.2-1.9c3.8,0,7.2,0.6,10.1,1.8c2.9,1.2,5.3,2.8,7.1,5c1.8,2.2,2.9,4.7,3.4,7.7 l-12.5,2.3c-0.2-1.8-1-3.2-2.3-4.3c-1.4-1-3.2-1.7-5.5-1.8c-2.3-0.2-4.1,0.2-5.4,0.9c-1.4,0.8-2,1.8-2,3.2c0,0.8,0.3,1.5,0.9,2.1 c0.6,0.6,1.8,1.2,3.6,1.8c1.8,0.6,4.7,1.4,8.4,2.3c3.7,1,6.7,2.1,8.9,3.4s3.9,2.8,4.9,4.6c1,1.8,1.5,3.9,1.5,6.5 c0,5-1.8,8.9-5.4,11.7S608.6,184.3,602.3,184.3z"></path> <path fill="#0D4F81" d="M633.4,127.6v-10.8h12.2v10.8H633.4z M633.4,183v-48.6h12.2V183H633.4z"></path> <path fill="#0D4F81" d="M659,183v-48.6h10.9v16.1h1.5V183H659z M692.3,183v-23c0-1.1-0.1-2.5-0.2-4.3c-0.1-1.7-0.5-3.5-1.1-5.2 c-0.6-1.7-1.7-3.2-3.1-4.4c-1.4-1.2-3.4-1.8-6.1-1.8c-1.1,0-2.2,0.2-3.4,0.5c-1.2,0.3-2.3,1-3.4,1.9c-1.1,0.9-1.9,2.3-2.6,4.2 c-0.7,1.8-1,4.3-1,7.3l-7-3.3c0-3.8,0.8-7.4,2.3-10.8c1.6-3.4,3.9-6.1,7-8.1c3.1-2.1,7.1-3.1,11.9-3.1c3.8,0,6.9,0.6,9.3,1.9 c2.4,1.3,4.3,2.9,5.6,4.9s2.3,4,2.9,6.2c0.6,2.1,0.9,4.1,1,5.9c0.1,1.8,0.2,3.1,0.2,3.9V183H692.3z"></path> <path fill="#0D4F81" d="M738.1,184.3c-5,0-9.4-1.1-13.2-3.2c-3.8-2.1-6.8-5.1-8.9-8.9c-2.1-3.8-3.2-8.1-3.2-12.9 c0-5.3,1-9.9,3.2-13.9c2.1-3.9,5-7,8.7-9.2c3.7-2.2,7.9-3.3,12.7-3.3c5.1,0,9.4,1.2,13,3.6c3.6,2.4,6.2,5.8,7.9,10.1 s2.3,9.5,1.8,15.3H748v-4.5c0-5-0.8-8.5-2.4-10.7c-1.6-2.2-4.1-3.3-7.7-3.3c-4.2,0-7.2,1.3-9.2,3.8s-2.9,6.3-2.9,11.2 c0,4.5,1,8,2.9,10.5c2,2.5,4.9,3.7,8.7,3.7c2.4,0,4.5-0.5,6.2-1.6c1.7-1.1,3-2.6,3.9-4.5l12.2,3.5c-1.8,4.4-4.7,7.9-8.7,10.3 C747.1,183.1,742.7,184.3,738.1,184.3z M722,162.1V153h32.2v9.1H722z"></path> <path fill="#0D4F81" d="M789.2,184.3c-6.1,0-11.1-1.4-14.8-4.2c-3.8-2.8-6.1-6.7-6.9-11.8l12.5-1.9c0.5,2.3,1.6,4.1,3.4,5.4 c1.8,1.3,4,1.9,6.7,1.9c2.2,0,3.9-0.4,5.1-1.3c1.2-0.9,1.8-2,1.8-3.6c0-1-0.2-1.7-0.7-2.3s-1.6-1.2-3.2-1.7s-4.3-1.3-7.8-2.3 c-4-1-7.1-2.2-9.5-3.4c-2.4-1.3-4.1-2.8-5.1-4.5c-1.1-1.8-1.6-3.9-1.6-6.4c0-3.1,0.8-5.8,2.4-8.1s3.8-4.1,6.7-5.3 c2.9-1.2,6.3-1.9,10.2-1.9c3.8,0,7.2,0.6,10.1,1.8s5.3,2.8,7.1,5c1.8,2.2,2.9,4.7,3.4,7.7l-12.5,2.3c-0.2-1.8-1-3.2-2.3-4.3 c-1.4-1-3.2-1.7-5.5-1.8c-2.3-0.2-4.1,0.2-5.4,0.9s-2,1.8-2,3.2c0,0.8,0.3,1.5,0.9,2.1c0.6,0.6,1.8,1.2,3.6,1.8 c1.8,0.6,4.7,1.4,8.4,2.3c3.7,1,6.7,2.1,8.9,3.4c2.2,1.3,3.9,2.8,4.9,4.6c1,1.8,1.5,3.9,1.5,6.5c0,5-1.8,8.9-5.4,11.7 C800.5,182.9,795.5,184.3,789.2,184.3z"></path> <path fill="#0D4F81" d="M838.4,184.3c-6.1,0-11.1-1.4-14.8-4.2c-3.8-2.8-6.1-6.7-6.9-11.8l12.5-1.9c0.5,2.3,1.6,4.1,3.4,5.4 c1.8,1.3,4,1.9,6.7,1.9c2.2,0,3.9-0.4,5.1-1.3c1.2-0.9,1.8-2,1.8-3.6c0-1-0.2-1.7-0.7-2.3s-1.6-1.2-3.2-1.7s-4.3-1.3-7.8-2.3 c-4-1-7.1-2.2-9.5-3.4c-2.4-1.3-4.1-2.8-5.1-4.5c-1.1-1.8-1.6-3.9-1.6-6.4c0-3.1,0.8-5.8,2.4-8.1s3.8-4.1,6.7-5.3 c2.9-1.2,6.3-1.9,10.2-1.9c3.8,0,7.2,0.6,10.1,1.8s5.3,2.8,7.1,5c1.8,2.2,2.9,4.7,3.4,7.7l-12.5,2.3c-0.2-1.8-1-3.2-2.3-4.3 c-1.4-1-3.2-1.7-5.5-1.8c-2.3-0.2-4.1,0.2-5.4,0.9s-2,1.8-2,3.2c0,0.8,0.3,1.5,0.9,2.1c0.6,0.6,1.8,1.2,3.6,1.8 c1.8,0.6,4.7,1.4,8.4,2.3c3.7,1,6.7,2.1,8.9,3.4c2.2,1.3,3.9,2.8,4.9,4.6c1,1.8,1.5,3.9,1.5,6.5c0,5-1.8,8.9-5.4,11.7 C849.8,182.9,844.8,184.3,838.4,184.3z"></path> <path fill="#0D4F81" d="M911.1,184.3c-4.8,0-9.1-0.8-13-2.5s-7-4.1-9.5-7.3c-2.5-3.2-4-6.9-4.7-11.3l12.8-1.9 c0.9,3.7,2.8,6.6,5.6,8.6c2.8,2,6,3,9.6,3c2,0,4-0.3,5.8-0.9c1.9-0.6,3.4-1.6,4.7-2.8c1.2-1.2,1.8-2.7,1.8-4.5 c0-0.7-0.1-1.3-0.3-1.9c-0.2-0.6-0.5-1.2-1-1.7c-0.5-0.5-1.1-1-1.9-1.5c-0.8-0.5-1.9-0.9-3.1-1.3l-16.8-5c-1.3-0.4-2.7-0.9-4.4-1.5 c-1.7-0.7-3.3-1.6-4.8-2.8s-2.9-2.9-3.9-4.9c-1-2-1.6-4.6-1.6-7.7c0-4.3,1.1-8,3.3-10.8c2.2-2.9,5.1-5,8.8-6.4 c3.7-1.4,7.7-2.1,12.2-2.1c4.5,0.1,8.5,0.8,12,2.3c3.5,1.5,6.5,3.6,8.8,6.4c2.4,2.8,4.1,6.2,5.1,10.3l-13.2,2.3 c-0.5-2.1-1.4-3.9-2.7-5.3c-1.3-1.4-2.8-2.5-4.6-3.3c-1.8-0.7-3.7-1.2-5.6-1.2c-1.9-0.1-3.7,0.2-5.4,0.8c-1.7,0.6-3.1,1.4-4.1,2.5 s-1.6,2.4-1.6,4c0,1.4,0.4,2.6,1.3,3.4c0.9,0.9,2,1.6,3.3,2.1c1.3,0.5,2.7,1,4,1.3l11.3,3.1c1.7,0.4,3.5,1,5.6,1.8 c2,0.7,4,1.8,5.9,3.1c1.9,1.3,3.4,3,4.6,5.2c1.2,2.1,1.8,4.8,1.8,8.1c0,3.5-0.7,6.5-2.2,9.1c-1.5,2.6-3.4,4.7-5.9,6.4 c-2.5,1.7-5.2,3-8.3,3.8C917.6,183.9,914.4,184.3,911.1,184.3z"></path> <path fill="#0D4F81" d="M941.6,143.8v-9.4h34.6v9.4H941.6z M976.2,183c-3.4,0.6-6.7,0.9-9.9,0.8c-3.2-0.1-6.1-0.6-8.6-1.7 s-4.5-2.8-5.8-5.2c-1.2-2.2-1.8-4.5-1.9-6.8c-0.1-2.3-0.1-4.9-0.1-7.8v-41.5h12.2v40.8c0,1.9,0,3.6,0.1,5.1c0,1.5,0.4,2.7,0.9,3.6 c1.1,1.7,2.8,2.6,5.2,2.8c2.4,0.2,5,0,7.9-0.4V183z"></path> <path fill="#0D4F81" d="M1005.1,184.4c-3.8,0-6.9-0.6-9.3-1.9c-2.4-1.3-4.3-2.9-5.6-4.9c-1.3-2-2.3-4-2.9-6.2 c-0.6-2.1-0.9-4.1-1-5.9c-0.1-1.8-0.2-3.1-0.2-3.9v-27.3h12.4v22.9c0,1.1,0.1,2.5,0.2,4.3c0.1,1.7,0.5,3.5,1.1,5.2 c0.6,1.7,1.7,3.2,3.1,4.4s3.4,1.8,6.1,1.8c1,0,2.2-0.2,3.4-0.5c1.2-0.3,2.3-1,3.4-1.9c1-0.9,1.9-2.3,2.6-4.2c0.7-1.8,1-4.3,1-7.3 l7,3.3c0,3.8-0.8,7.4-2.3,10.8c-1.6,3.4-3.9,6.1-7,8.1S1009.9,184.4,1005.1,184.4z M1020.8,183v-16.1h-1.5v-32.5h12.3V183H1020.8z"></path> <path fill="#0D4F81" d="M1063.9,184.3c-4.5,0-8.4-1.1-11.7-3.4s-6-5.3-7.9-9.2s-2.8-8.2-2.8-13.1c0-5,1-9.4,2.9-13.2 c1.9-3.9,4.6-6.9,8-9.1c3.4-2.2,7.5-3.3,12.1-3.3c4.6,0,8.5,1.1,11.7,3.4s5.5,5.3,7.2,9.2c1.6,3.9,2.4,8.2,2.4,13.1 s-0.8,9.2-2.5,13.1c-1.6,3.9-4.1,6.9-7.3,9.2S1068.8,184.3,1063.9,184.3z M1065.9,173.5c2.7,0,4.9-0.6,6.5-1.8s2.8-3,3.5-5.2 c0.7-2.2,1.1-4.8,1.1-7.7s-0.4-5.5-1.1-7.7c-0.7-2.2-1.9-3.9-3.4-5.2c-1.6-1.2-3.6-1.8-6.2-1.8c-2.7,0-5,0.7-6.7,2 c-1.8,1.3-3.1,3.1-3.9,5.4c-0.8,2.2-1.3,4.7-1.3,7.4c0,2.7,0.4,5.2,1.2,7.4c0.8,2.2,2.1,4,3.7,5.3 C1061.1,172.8,1063.3,173.5,1065.9,173.5z M1077.1,183v-33.3h-1.5v-31.5h12.3V183H1077.1z"></path> <path fill="#0D4F81" d="M1101.4,127.6v-10.8h12.2v10.8H1101.4z M1101.4,183v-48.6h12.2V183H1101.4z"></path> <path fill="#0D4F81" d="M1149.7,184.3c-5,0-9.4-1.1-13.2-3.2c-3.8-2.1-6.8-5.1-8.9-8.9c-2.1-3.8-3.2-8.1-3.2-12.9 c0-5.3,1-9.9,3.2-13.9c2.1-3.9,5-7,8.7-9.2c3.7-2.2,7.9-3.3,12.7-3.3c5.1,0,9.4,1.2,13,3.6s6.2,5.8,7.9,10.1s2.3,9.5,1.8,15.3 h-12.1v-4.5c0-5-0.8-8.5-2.4-10.7s-4.1-3.3-7.7-3.3c-4.2,0-7.2,1.3-9.2,3.8c-2,2.5-2.9,6.3-2.9,11.2c0,4.5,1,8,2.9,10.5 c2,2.5,4.9,3.7,8.7,3.7c2.4,0,4.5-0.5,6.2-1.6c1.7-1.1,3-2.6,3.9-4.5l12.2,3.5c-1.8,4.4-4.7,7.9-8.7,10.3 S1154.4,184.3,1149.7,184.3z M1133.6,162.1V153h32.2v9.1H1133.6z"></path> <path fill="#0D4F81" d="M1200.8,184.3c-6.1,0-11.1-1.4-14.8-4.2c-3.8-2.8-6.1-6.7-6.9-11.8l12.5-1.9c0.5,2.3,1.6,4.1,3.4,5.4 c1.8,1.3,4,1.9,6.7,1.9c2.2,0,3.9-0.4,5.1-1.3c1.2-0.9,1.8-2,1.8-3.6c0-1-0.2-1.7-0.7-2.3c-0.5-0.6-1.6-1.2-3.2-1.7 s-4.3-1.3-7.8-2.3c-4-1-7.1-2.2-9.5-3.4s-4.1-2.8-5.1-4.5c-1.1-1.8-1.6-3.9-1.6-6.4c0-3.1,0.8-5.8,2.4-8.1c1.6-2.3,3.8-4.1,6.7-5.3 c2.9-1.2,6.3-1.9,10.2-1.9c3.8,0,7.2,0.6,10.1,1.8c2.9,1.2,5.3,2.8,7.1,5c1.8,2.2,2.9,4.7,3.4,7.7l-12.5,2.3 c-0.2-1.8-1-3.2-2.3-4.3c-1.3-1-3.2-1.7-5.5-1.8c-2.3-0.2-4.1,0.2-5.4,0.9c-1.4,0.8-2,1.8-2,3.2c0,0.8,0.3,1.5,0.9,2.1 c0.6,0.6,1.8,1.2,3.6,1.8c1.8,0.6,4.7,1.4,8.4,2.3c3.7,1,6.7,2.1,8.9,3.4c2.2,1.3,3.9,2.8,4.9,4.6s1.5,3.9,1.5,6.5 c0,5-1.8,8.9-5.4,11.7C1212.2,182.9,1207.2,184.3,1200.8,184.3z"></path> </g> <g> <path fill="#EE427C" d="M389.5,239v-33.1h20.2v6.3h-14v7.2H407v6.3h-11.2V239H389.5z"></path> <path fill="#EE427C" d="M424.4,239.7c-2.5,0-4.7-0.6-6.6-1.7c-1.9-1.1-3.4-2.7-4.4-4.6s-1.6-4.2-1.6-6.8c0-2.6,0.5-4.9,1.6-6.8 c1.1-2,2.6-3.5,4.4-4.6c1.9-1.1,4.1-1.7,6.5-1.7c2.5,0,4.7,0.6,6.6,1.7c1.9,1.1,3.4,2.7,4.4,4.6c1.1,2,1.6,4.2,1.6,6.8 c0,2.6-0.5,4.8-1.6,6.8c-1.1,2-2.5,3.5-4.4,4.6C429,239.1,426.8,239.7,424.4,239.7z M424.4,233.8c2,0,3.5-0.7,4.5-2 c1-1.4,1.5-3.1,1.5-5.2c0-2.2-0.5-4-1.5-5.3c-1-1.3-2.5-2-4.5-2c-1.4,0-2.5,0.3-3.4,0.9s-1.5,1.5-1.9,2.6c-0.4,1.1-0.6,2.4-0.6,3.8 c0,2.2,0.5,4,1.5,5.3C420.9,233.2,422.4,233.8,424.4,233.8z"></path> <path fill="#EE427C" d="M442,239v-24.8h5.5v6.1l-0.6-0.8c0.3-0.9,0.8-1.6,1.3-2.3c0.5-0.7,1.2-1.3,2-1.7c0.6-0.4,1.2-0.7,2-0.9 s1.4-0.3,2.2-0.4s1.5,0,2.3,0.1v5.8c-0.7-0.2-1.5-0.3-2.4-0.2c-0.9,0.1-1.7,0.3-2.5,0.6c-0.7,0.3-1.4,0.8-1.9,1.3s-0.9,1.2-1.1,2 c-0.3,0.8-0.4,1.6-0.4,2.6V239H442z"></path> <path fill="#EE427C" d="M477.1,239.7c-1.8,0-3.3-0.3-4.5-1c-1.2-0.7-2.2-1.6-2.8-2.7s-1-2.4-1-3.8c0-1.2,0.2-2.2,0.5-3.2 c0.4-1,0.9-1.8,1.7-2.5c0.8-0.7,1.9-1.3,3.2-1.8c0.9-0.3,2-0.6,3.3-0.9c1.3-0.3,2.7-0.5,4.3-0.7c1.6-0.2,3.4-0.5,5.3-0.8l-2.3,1.2 c0-1.5-0.4-2.6-1.1-3.2s-1.9-1-3.5-1c-0.9,0-1.9,0.2-2.9,0.7c-1,0.4-1.7,1.2-2.1,2.4l-5.7-1.8c0.6-2.1,1.8-3.7,3.5-5 c1.7-1.3,4.1-1.9,7.1-1.9c2.2,0,4.1,0.3,5.8,1c1.7,0.7,3,1.8,3.9,3.5c0.5,0.9,0.8,1.8,0.9,2.8c0.1,0.9,0.1,1.9,0.1,3.1V239h-5.5 v-5.1l0.8,1.1c-1.2,1.7-2.5,2.9-3.9,3.6C481,239.3,479.2,239.7,477.1,239.7z M478.4,234.8c1.1,0,2.1-0.2,2.9-0.6s1.4-0.9,1.9-1.4 s0.8-1,1-1.3c0.3-0.7,0.5-1.5,0.6-2.4c0.1-0.9,0.1-1.6,0.1-2.2l1.8,0.5c-1.9,0.3-3.4,0.6-4.5,0.8c-1.2,0.2-2.1,0.4-2.8,0.6 c-0.7,0.2-1.3,0.4-1.9,0.6c-0.6,0.2-1.1,0.5-1.5,0.8c-0.4,0.3-0.7,0.6-0.8,0.9c-0.2,0.3-0.3,0.7-0.3,1.1c0,0.6,0.1,1.1,0.4,1.5 s0.7,0.7,1.2,0.9C477.1,234.7,477.7,234.8,478.4,234.8z"></path> <path fill="#EE427C" d="M497.5,239v-33.8h6.3V239H497.5z"></path> <path fill="#EE427C" d="M511.1,239v-33.8h6.3V239H511.1z"></path> <path fill="#EE427C" d="M536.6,250l4.8-13.2l0.1,3.9l-10.8-26.6h6.5l7.3,18.8H543l7.2-18.8h6.3l-14,35.9H536.6z"></path> <path fill="#EE427C" d="M569.9,239.7c-2.5,0-4.7-0.6-6.6-1.7c-1.9-1.1-3.4-2.7-4.4-4.6s-1.6-4.2-1.6-6.8c0-2.6,0.5-4.9,1.6-6.8 c1.1-2,2.6-3.5,4.4-4.6c1.9-1.1,4.1-1.7,6.5-1.7c2.5,0,4.7,0.6,6.6,1.7c1.9,1.1,3.4,2.7,4.4,4.6c1.1,2,1.6,4.2,1.6,6.8 c0,2.6-0.5,4.8-1.6,6.8c-1.1,2-2.5,3.5-4.4,4.6C574.6,239.1,572.4,239.7,569.9,239.7z M569.9,233.8c2,0,3.5-0.7,4.5-2 c1-1.4,1.5-3.1,1.5-5.2c0-2.2-0.5-4-1.5-5.3c-1-1.3-2.5-2-4.5-2c-1.4,0-2.5,0.3-3.4,0.9s-1.5,1.5-1.9,2.6c-0.4,1.1-0.6,2.4-0.6,3.8 c0,2.2,0.5,4,1.5,5.3C566.5,233.2,568,233.8,569.9,233.8z"></path> <path fill="#EE427C" d="M596.8,239.7c-1.9,0-3.5-0.3-4.8-1c-1.2-0.7-2.2-1.5-2.9-2.5s-1.2-2.1-1.5-3.2c-0.3-1.1-0.5-2.1-0.5-3 c-0.1-0.9-0.1-1.6-0.1-2v-13.9h6.3v11.7c0,0.6,0,1.3,0.1,2.2c0.1,0.9,0.3,1.8,0.6,2.7c0.3,0.9,0.8,1.6,1.6,2.2 c0.7,0.6,1.8,0.9,3.1,0.9c0.5,0,1.1-0.1,1.7-0.3c0.6-0.2,1.2-0.5,1.7-1c0.5-0.5,1-1.2,1.3-2.1c0.3-0.9,0.5-2.2,0.5-3.7l3.6,1.7 c0,2-0.4,3.8-1.2,5.5c-0.8,1.7-2,3.1-3.6,4.2C601.3,239.2,599.3,239.7,596.8,239.7z M604.9,239v-8.2h-0.8v-16.6h6.3V239H604.9z"></path> <path fill="#EE427C" d="M616.8,239v-24.8h5.5v6.1l-0.6-0.8c0.3-0.9,0.8-1.6,1.3-2.3c0.5-0.7,1.2-1.3,2-1.7c0.6-0.4,1.2-0.7,2-0.9 s1.4-0.3,2.2-0.4s1.5,0,2.3,0.1v5.8c-0.7-0.2-1.5-0.3-2.4-0.2c-0.9,0.1-1.7,0.3-2.5,0.6c-0.7,0.3-1.4,0.8-1.9,1.3s-0.9,1.2-1.1,2 c-0.3,0.8-0.4,1.6-0.4,2.6V239H616.8z"></path> <path fill="#EE427C" d="M642.2,219v-4.8h17.7v4.8H642.2z M659.9,239c-1.7,0.3-3.4,0.5-5,0.4c-1.6,0-3.1-0.3-4.4-0.9 c-1.3-0.5-2.3-1.4-3-2.6c-0.6-1.1-0.9-2.3-1-3.5c0-1.2,0-2.5,0-4v-21.2h6.3v20.8c0,1,0,1.8,0,2.6c0,0.8,0.2,1.4,0.5,1.9 c0.6,0.9,1.4,1.3,2.6,1.4c1.2,0.1,2.6,0,4-0.2V239z"></path> <path fill="#EE427C" d="M675.6,239.7c-2.5,0-4.8-0.5-6.7-1.6c-1.9-1.1-3.5-2.6-4.6-4.5c-1.1-1.9-1.6-4.1-1.6-6.6 c0-2.7,0.5-5.1,1.6-7.1c1.1-2,2.6-3.6,4.4-4.7s4.1-1.7,6.5-1.7c2.6,0,4.8,0.6,6.6,1.8c1.8,1.2,3.2,3,4,5.2c0.9,2.2,1.2,4.8,0.9,7.8 h-6.2V226c0-2.5-0.4-4.3-1.2-5.5c-0.8-1.1-2.1-1.7-3.9-1.7c-2.1,0-3.7,0.6-4.7,1.9c-1,1.3-1.5,3.2-1.5,5.7c0,2.3,0.5,4.1,1.5,5.4 c1,1.3,2.5,1.9,4.4,1.9c1.2,0,2.3-0.3,3.2-0.8s1.5-1.3,2-2.3l6.3,1.8c-0.9,2.3-2.4,4-4.4,5.3C680.2,239.1,678,239.7,675.6,239.7z M667.3,228.3v-4.6h16.5v4.6H667.3z"></path> <path fill="#EE427C" d="M702.9,239.7c-2.6,0-4.8-0.6-6.6-1.7s-3.3-2.7-4.2-4.7c-1-2-1.5-4.2-1.5-6.7c0-2.5,0.5-4.8,1.5-6.7 c1-2,2.5-3.5,4.3-4.7c1.9-1.1,4-1.7,6.6-1.7c2.9,0,5.4,0.7,7.4,2.2c2,1.5,3.3,3.5,3.8,6.1l-6.3,1.7c-0.4-1.3-1-2.3-1.9-3 s-1.9-1.1-3.1-1.1c-1.3,0-2.4,0.3-3.2,1c-0.8,0.6-1.5,1.5-1.9,2.6c-0.4,1.1-0.6,2.3-0.6,3.7c0,2.2,0.5,3.9,1.4,5.3s2.4,2,4.3,2 c1.4,0,2.5-0.3,3.2-1c0.7-0.6,1.3-1.6,1.7-2.8l6.4,1.3c-0.7,2.6-2,4.7-4,6.1C708.2,239,705.8,239.7,702.9,239.7z"></path> <path fill="#EE427C" d="M718.8,239v-33.1h5.6v17h0.8V239H718.8z M735.7,239v-11.7c0-0.6,0-1.3-0.1-2.2s-0.3-1.8-0.6-2.7 c-0.3-0.9-0.8-1.6-1.6-2.2s-1.8-0.9-3.1-0.9c-0.5,0-1.1,0.1-1.7,0.3c-0.6,0.2-1.2,0.5-1.7,1c-0.5,0.5-1,1.2-1.3,2.1 s-0.5,2.2-0.5,3.7l-3.6-1.7c0-2,0.4-3.8,1.2-5.5c0.8-1.7,2-3.1,3.6-4.2c1.6-1.1,3.6-1.6,6.1-1.6c1.9,0,3.5,0.3,4.8,1 s2.2,1.5,2.9,2.5s1.2,2.1,1.5,3.2c0.3,1.1,0.5,2.1,0.5,3c0.1,0.9,0.1,1.6,0.1,2V239H735.7z"></path> <path fill="#EE427C" d="M748,239v-24.8h5.6v8.2h0.8V239H748z M765,239v-11.7c0-0.6,0-1.3-0.1-2.2c-0.1-0.9-0.3-1.8-0.6-2.7 c-0.3-0.9-0.8-1.6-1.6-2.2c-0.7-0.6-1.8-0.9-3.1-0.9c-0.5,0-1.1,0.1-1.7,0.3c-0.6,0.2-1.2,0.5-1.7,1c-0.5,0.5-1,1.2-1.3,2.1 c-0.3,0.9-0.5,2.2-0.5,3.7l-3.6-1.7c0-2,0.4-3.8,1.2-5.5c0.8-1.7,2-3.1,3.6-4.2c1.6-1.1,3.6-1.6,6.1-1.6c1.9,0,3.5,0.3,4.8,1 s2.2,1.5,2.9,2.5c0.7,1,1.2,2.1,1.5,3.2c0.3,1.1,0.5,2.1,0.5,3s0.1,1.6,0.1,2V239H765z"></path> <path fill="#EE427C" d="M777.8,210.7v-5.5h6.3v5.5H777.8z M777.8,239v-24.8h6.3V239H777.8z"></path> <path fill="#EE427C" d="M801.9,239.7c-2.6,0-4.8-0.6-6.6-1.7s-3.3-2.7-4.2-4.7c-1-2-1.5-4.2-1.5-6.7c0-2.5,0.5-4.8,1.5-6.7 s2.5-3.5,4.3-4.7s4-1.7,6.6-1.7c2.9,0,5.4,0.7,7.4,2.2c2,1.5,3.3,3.5,3.8,6.1l-6.3,1.7c-0.4-1.3-1-2.3-1.9-3 c-0.9-0.7-1.9-1.1-3.1-1.1c-1.3,0-2.4,0.3-3.2,1c-0.8,0.6-1.5,1.5-1.9,2.6c-0.4,1.1-0.6,2.3-0.6,3.7c0,2.2,0.5,3.9,1.4,5.3 c1,1.3,2.4,2,4.3,2c1.4,0,2.5-0.3,3.2-1s1.3-1.6,1.7-2.8l6.4,1.3c-0.7,2.6-2,4.7-4,6.1S804.8,239.7,801.9,239.7z"></path> <path fill="#EE427C" d="M824.2,239.7c-1.8,0-3.3-0.3-4.5-1c-1.2-0.7-2.2-1.6-2.8-2.7c-0.6-1.1-1-2.4-1-3.8c0-1.2,0.2-2.2,0.5-3.2 s0.9-1.8,1.7-2.5c0.8-0.7,1.9-1.3,3.2-1.8c0.9-0.3,2-0.6,3.3-0.9c1.3-0.3,2.7-0.5,4.3-0.7c1.6-0.2,3.4-0.5,5.3-0.8l-2.3,1.2 c0-1.5-0.4-2.6-1.1-3.2s-1.9-1-3.5-1c-0.9,0-1.9,0.2-2.9,0.7c-1,0.4-1.7,1.2-2.1,2.4l-5.7-1.8c0.6-2.1,1.8-3.7,3.5-5 c1.7-1.3,4.1-1.9,7.1-1.9c2.2,0,4.1,0.3,5.8,1c1.7,0.7,3,1.8,3.9,3.5c0.5,0.9,0.8,1.8,0.9,2.8c0.1,0.9,0.1,1.9,0.1,3.1V239h-5.5 v-5.1l0.8,1.1c-1.2,1.7-2.5,2.9-3.9,3.6C828.1,239.3,826.3,239.7,824.2,239.7z M825.5,234.8c1.2,0,2.1-0.2,2.9-0.6 c0.8-0.4,1.4-0.9,1.9-1.4s0.8-1,1-1.3c0.3-0.7,0.5-1.5,0.6-2.4s0.1-1.6,0.1-2.2l1.8,0.5c-1.9,0.3-3.4,0.6-4.5,0.8 c-1.2,0.2-2.1,0.4-2.8,0.6c-0.7,0.2-1.3,0.4-1.9,0.6c-0.6,0.2-1.1,0.5-1.5,0.8c-0.4,0.3-0.7,0.6-0.8,0.9c-0.2,0.3-0.3,0.7-0.3,1.1 c0,0.6,0.1,1.1,0.4,1.5c0.3,0.4,0.7,0.7,1.2,0.9C824.2,234.7,824.8,234.8,825.5,234.8z"></path> <path fill="#EE427C" d="M844.6,239v-33.8h6.3V239H844.6z"></path> <path fill="#EE427C" d="M864.2,219v-4.8h17.7v4.8H864.2z M881.8,239c-1.7,0.3-3.4,0.5-5,0.4c-1.6,0-3.1-0.3-4.4-0.9 c-1.3-0.5-2.3-1.4-3-2.6c-0.6-1.1-0.9-2.3-1-3.5c0-1.2,0-2.5,0-4v-21.2h6.3v20.8c0,1,0,1.8,0,2.6c0,0.8,0.2,1.4,0.5,1.9 c0.6,0.9,1.4,1.3,2.6,1.4s2.6,0,4-0.2V239z"></path> <path fill="#EE427C" d="M887.3,239v-24.8h5.5v6.1l-0.6-0.8c0.3-0.9,0.8-1.6,1.3-2.3c0.5-0.7,1.2-1.3,2-1.7c0.6-0.4,1.3-0.7,2-0.9 s1.4-0.3,2.2-0.4c0.8-0.1,1.5,0,2.3,0.1v5.8c-0.7-0.2-1.5-0.3-2.4-0.2c-0.9,0.1-1.7,0.3-2.5,0.6c-0.7,0.3-1.4,0.8-1.9,1.3 s-0.9,1.2-1.2,2s-0.4,1.6-0.4,2.6V239H887.3z"></path> <path fill="#EE427C" d="M912.7,239.7c-1.8,0-3.3-0.3-4.5-1c-1.2-0.7-2.2-1.6-2.8-2.7c-0.6-1.1-1-2.4-1-3.8c0-1.2,0.2-2.2,0.5-3.2 c0.4-1,0.9-1.8,1.7-2.5s1.9-1.3,3.2-1.8c0.9-0.3,2-0.6,3.3-0.9s2.7-0.5,4.3-0.7c1.6-0.2,3.4-0.5,5.3-0.8l-2.3,1.2 c0-1.5-0.4-2.6-1.1-3.2s-1.9-1-3.5-1c-0.9,0-1.9,0.2-2.9,0.7c-1,0.4-1.7,1.2-2.1,2.4l-5.7-1.8c0.6-2.1,1.8-3.7,3.5-5 c1.7-1.3,4.1-1.9,7.1-1.9c2.2,0,4.1,0.3,5.8,1c1.7,0.7,3,1.8,3.9,3.5c0.5,0.9,0.8,1.8,0.9,2.8s0.1,1.9,0.1,3.1V239h-5.5v-5.1 l0.8,1.1c-1.2,1.7-2.5,2.9-3.9,3.6C916.7,239.3,914.9,239.7,912.7,239.7z M914.1,234.8c1.1,0,2.1-0.2,2.9-0.6 c0.8-0.4,1.4-0.9,1.9-1.4s0.8-1,1-1.3c0.3-0.7,0.5-1.5,0.6-2.4c0.1-0.9,0.1-1.6,0.1-2.2l1.8,0.5c-1.9,0.3-3.4,0.6-4.5,0.8 s-2.1,0.4-2.8,0.6c-0.7,0.2-1.3,0.4-1.9,0.6c-0.6,0.2-1.1,0.5-1.5,0.8c-0.4,0.3-0.7,0.6-0.8,0.9c-0.2,0.3-0.3,0.7-0.3,1.1 c0,0.6,0.1,1.1,0.4,1.5c0.3,0.4,0.7,0.7,1.2,0.9C912.7,234.7,913.4,234.8,914.1,234.8z"></path> <path fill="#EE427C" d="M933.1,210.7v-5.5h6.3v5.5H933.1z M933.1,239v-24.8h6.3V239H933.1z"></path> <path fill="#EE427C" d="M946.2,239v-24.8h5.6v8.2h0.8V239H946.2z M963.2,239v-11.7c0-0.6,0-1.3-0.1-2.2c-0.1-0.9-0.3-1.8-0.6-2.7 c-0.3-0.9-0.8-1.6-1.6-2.2c-0.7-0.6-1.8-0.9-3.1-0.9c-0.5,0-1.1,0.1-1.7,0.3c-0.6,0.2-1.2,0.5-1.7,1c-0.5,0.5-1,1.2-1.3,2.1 c-0.3,0.9-0.5,2.2-0.5,3.7l-3.6-1.7c0-2,0.4-3.8,1.2-5.5c0.8-1.7,2-3.1,3.6-4.2c1.6-1.1,3.6-1.6,6.1-1.6c1.9,0,3.5,0.3,4.8,1 s2.2,1.5,2.9,2.5c0.7,1,1.2,2.1,1.5,3.2c0.3,1.1,0.5,2.1,0.5,3s0.1,1.6,0.1,2V239H963.2z"></path> <path fill="#EE427C" d="M976,210.7v-5.5h6.3v5.5H976z M976,239v-24.8h6.3V239H976z"></path> <path fill="#EE427C" d="M989.1,239v-24.8h5.6v8.2h0.8V239H989.1z M1006.1,239v-11.7c0-0.6,0-1.3-0.1-2.2s-0.3-1.8-0.6-2.7 c-0.3-0.9-0.8-1.6-1.6-2.2s-1.8-0.9-3.1-0.9c-0.5,0-1.1,0.1-1.7,0.3c-0.6,0.2-1.2,0.5-1.7,1c-0.5,0.5-1,1.2-1.3,2.1 s-0.5,2.2-0.5,3.7l-3.6-1.7c0-2,0.4-3.8,1.2-5.5c0.8-1.7,2-3.1,3.6-4.2c1.6-1.1,3.6-1.6,6.1-1.6c1.9,0,3.5,0.3,4.8,1 s2.2,1.5,2.9,2.5s1.2,2.1,1.5,3.2c0.3,1.1,0.5,2.1,0.5,3c0.1,0.9,0.1,1.6,0.1,2V239H1006.1z"></path> <path fill="#EE427C" d="M1028.5,239.7c-2.3,0-4.3-0.6-6-1.7c-1.7-1.2-3.1-2.7-4-4.7c-1-2-1.4-4.2-1.4-6.7c0-2.5,0.5-4.8,1.5-6.8 c1-2,2.3-3.5,4.1-4.7c1.8-1.1,3.8-1.7,6.2-1.7c2.4,0,4.3,0.6,6,1.7c1.6,1.2,2.8,2.7,3.7,4.7c0.8,2,1.2,4.2,1.2,6.7 s-0.4,4.7-1.3,6.7c-0.8,2-2.1,3.5-3.7,4.7C1033,239.1,1030.9,239.7,1028.5,239.7z M1029,250.7c-1.4,0-2.8-0.2-4-0.7 c-1.3-0.5-2.4-1.1-3.4-1.9c-1-0.8-1.8-1.7-2.4-2.8l5.8-2.8c0.4,0.7,1,1.3,1.7,1.7c0.7,0.4,1.6,0.6,2.4,0.6c0.9,0,1.8-0.2,2.6-0.5 s1.5-0.8,2-1.4c0.5-0.6,0.7-1.4,0.7-2.3v-7.2h0.8v-19.2h5.5v26.5c0,0.6,0,1.2-0.1,1.7s-0.1,1.1-0.3,1.6c-0.4,1.5-1.1,2.8-2.2,3.7 c-1.1,1-2.4,1.7-4,2.2C1032.5,250.5,1030.8,250.7,1029,250.7z M1029.5,234.1c1.4,0,2.5-0.3,3.3-0.9s1.4-1.5,1.8-2.6s0.6-2.5,0.6-4 c0-1.5-0.2-2.8-0.6-4s-1-2-1.8-2.6c-0.8-0.6-1.9-0.9-3.2-0.9c-1.4,0-2.5,0.3-3.4,1c-0.9,0.7-1.6,1.6-2,2.7 c-0.4,1.1-0.6,2.4-0.6,3.8c0,1.4,0.2,2.7,0.6,3.8s1,2.1,1.9,2.7C1027,233.8,1028.1,234.1,1029.5,234.1z"></path> <path fill="#EE427C" d="M1056.3,239v-24.8h5.6v8.2h0.8V239H1056.3z M1073.2,239v-11.7c0-0.6,0-1.3-0.1-2.2s-0.3-1.8-0.6-2.7 c-0.3-0.9-0.8-1.6-1.6-2.2s-1.8-0.9-3.1-0.9c-0.5,0-1.1,0.1-1.7,0.3c-0.6,0.2-1.2,0.5-1.7,1c-0.5,0.5-1,1.2-1.3,2.1 c-0.3,0.9-0.5,2.2-0.5,3.7l-3.6-1.7c0-2,0.4-3.8,1.2-5.5c0.8-1.7,2-3.1,3.6-4.2c1.6-1.1,3.6-1.6,6.1-1.6c1.9,0,3.5,0.3,4.8,1 s2.2,1.5,2.9,2.5c0.7,1,1.2,2.1,1.5,3.2c0.3,1.1,0.5,2.1,0.5,3c0.1,0.9,0.1,1.6,0.1,2V239H1073.2z"></path> <path fill="#EE427C" d="M1096.6,239.7c-2.5,0-4.8-0.5-6.7-1.6c-1.9-1.1-3.5-2.6-4.6-4.5s-1.6-4.1-1.6-6.6c0-2.7,0.5-5.1,1.6-7.1 s2.6-3.6,4.4-4.7c1.9-1.1,4.1-1.7,6.5-1.7c2.6,0,4.8,0.6,6.6,1.8c1.8,1.2,3.2,3,4,5.2c0.9,2.2,1.2,4.8,0.9,7.8h-6.2V226 c0-2.5-0.4-4.3-1.2-5.5c-0.8-1.1-2.1-1.7-3.9-1.7c-2.1,0-3.7,0.6-4.7,1.9c-1,1.3-1.5,3.2-1.5,5.7c0,2.3,0.5,4.1,1.5,5.4 c1,1.3,2.5,1.9,4.4,1.9c1.2,0,2.3-0.3,3.2-0.8s1.5-1.3,2-2.3l6.3,1.8c-0.9,2.3-2.4,4-4.4,5.3C1101.2,239.1,1099,239.7,1096.6,239.7 z M1088.4,228.3v-4.6h16.5v4.6H1088.4z"></path> <path fill="#EE427C" d="M1124.6,239.7c-2.5,0-4.8-0.5-6.7-1.6c-1.9-1.1-3.5-2.6-4.6-4.5s-1.6-4.1-1.6-6.6c0-2.7,0.5-5.1,1.6-7.1 s2.6-3.6,4.4-4.7c1.9-1.1,4.1-1.7,6.5-1.7c2.6,0,4.8,0.6,6.6,1.8c1.8,1.2,3.2,3,4,5.2c0.9,2.2,1.2,4.8,0.9,7.8h-6.2V226 c0-2.5-0.4-4.3-1.2-5.5c-0.8-1.1-2.1-1.7-3.9-1.7c-2.1,0-3.7,0.6-4.7,1.9c-1,1.3-1.5,3.2-1.5,5.7c0,2.3,0.5,4.1,1.5,5.4 c1,1.3,2.5,1.9,4.4,1.9c1.2,0,2.3-0.3,3.2-0.8s1.5-1.3,2-2.3l6.3,1.8c-0.9,2.3-2.4,4-4.4,5.3C1129.2,239.1,1127,239.7,1124.6,239.7 z M1116.4,228.3v-4.6h16.5v4.6H1116.4z"></path> <path fill="#EE427C" d="M1151.1,239.7c-2.3,0-4.3-0.6-6-1.7c-1.7-1.2-3.1-2.7-4-4.7c-1-2-1.4-4.2-1.4-6.7c0-2.5,0.5-4.8,1.5-6.8 c1-2,2.3-3.5,4.1-4.7c1.8-1.1,3.8-1.7,6.2-1.7c2.4,0,4.3,0.6,6,1.7c1.6,1.2,2.8,2.7,3.7,4.7c0.8,2,1.2,4.2,1.2,6.7 s-0.4,4.7-1.3,6.7c-0.8,2-2.1,3.5-3.7,4.7C1155.6,239.1,1153.6,239.7,1151.1,239.7z M1152.1,234.1c1.4,0,2.5-0.3,3.3-0.9 s1.4-1.5,1.8-2.6s0.6-2.5,0.6-4c0-1.5-0.2-2.8-0.6-4s-1-2-1.8-2.6c-0.8-0.6-1.9-0.9-3.2-0.9c-1.4,0-2.5,0.3-3.4,1 c-0.9,0.7-1.6,1.6-2,2.7c-0.4,1.1-0.6,2.4-0.6,3.8c0,1.4,0.2,2.7,0.6,3.8s1,2.1,1.9,2.7C1149.7,233.8,1150.8,234.1,1152.1,234.1z M1157.8,239v-17h-0.8v-16.1h6.3V239H1157.8z"></path> <path fill="#EE427C" d="M1179.5,239.7c-3.1,0-5.7-0.7-7.6-2.1c-1.9-1.4-3.1-3.4-3.5-6l6.4-1c0.3,1.2,0.8,2.1,1.7,2.7 c0.9,0.7,2,1,3.4,1c1.1,0,2-0.2,2.6-0.7s0.9-1,0.9-1.8c0-0.5-0.1-0.9-0.4-1.2c-0.2-0.3-0.8-0.6-1.6-0.9c-0.9-0.3-2.2-0.7-4-1.2 c-2-0.5-3.6-1.1-4.9-1.7c-1.2-0.6-2.1-1.4-2.6-2.3c-0.5-0.9-0.8-2-0.8-3.3c0-1.6,0.4-3,1.2-4.2c0.8-1.2,2-2.1,3.4-2.7 c1.5-0.6,3.2-1,5.2-1c1.9,0,3.7,0.3,5.2,0.9c1.5,0.6,2.7,1.4,3.6,2.6c0.9,1.1,1.5,2.4,1.7,3.9l-6.4,1.2c-0.1-0.9-0.5-1.6-1.2-2.2 s-1.6-0.9-2.8-0.9c-1.2-0.1-2.1,0.1-2.8,0.5c-0.7,0.4-1,0.9-1,1.7c0,0.4,0.1,0.8,0.4,1.1c0.3,0.3,0.9,0.6,1.9,0.9 c0.9,0.3,2.4,0.7,4.3,1.2c1.9,0.5,3.4,1.1,4.5,1.7c1.1,0.7,2,1.4,2.5,2.3s0.8,2,0.8,3.3c0,2.5-0.9,4.5-2.8,6 C1185.3,239,1182.7,239.7,1179.5,239.7z"></path> </g> <g> <path fill="#FFFFFF" d="M87,170.2c0,1.1,0,1.6,1,2.1c0.8,0.4,1.4,0.7,1.4,1.6c0,3-6.4,2.9-8.4,2.9c-1.9,0-7.9,0.2-7.9-2.9 c0-0.9,0.4-1.3,1.3-1.6c1.3-0.5,1.3-0.6,2-2.1c1.1-2.7,2.7-14.3,2.2-17.7c-0.1-0.7-0.5-0.8-1.1-0.9c-1.1-0.3-1.7-0.4-1.7-1.7 c0-2.4,2.4-2.8,4.3-2.9h13.8c4.8-0.1,8.7,1.5,9.1,6.5c0.4,5.4-4.3,6.3-4.3,7.4c0,0.6,0.4,0.8,0.8,1.1c0.9,0.6,1.5,1,1.8,2.1 c0.8,2.3,0.4,5.3,1,7.2c0.2,0.7,0.5,0.9,1.1,1.1c0.7,0.3,1.6,0.5,1.6,1.4c0,2.4-4.2,3.1-6,3.1c-8.9,0-6.6-7.1-8.1-11.7 c-0.3-1-1.3-1.3-2.3-1.3c-1.1,0-1.2,0.1-1.3,1.2L87,170.2z M88.2,158c-0.1,0.9-0.2,1.5,1,1.5c2.5,0,2.9-3.6,2.9-5.5 c0-1.6-0.4-2.8-2.2-2.8c-1.2,0-1.1,1.1-1.2,2.1L88.2,158z"></path> <path fill="#FFFFFF" d="M124,170.9c-2.5,4.8-3.7,6-6,6c-3.4,0-3.8-2.6-5.8-9.6l-3.7-13.3c-0.7-2.6-3.2-1.3-3.2-3.7 c0-1-0.4-3.5,9.4-3.5c6.1,0,6.6,1.3,6.6,2.9c0,2.2-2.9,1.3-2.5,3.3c0.6,3.6,2.1,10.6,3,10.6c1.1,0,4.7-9.6,4.7-11.1 c0-1.5-1.9-1.4-1.9-3.2c0-2.5,4.7-2.5,6.4-2.5c4.7,0,5.6,1.2,5.6,2.4c0,2.9-2.6,1.5-3.5,3.5L124,170.9z"></path> <path fill="#FFFFFF" d="M138.8,164.6c0.2-1,0.4-1.8,0.4-2.3s-0.2-0.8-0.9-0.8c-0.6,0-1.6,0-1.6-1.5c0-1.8,1.9-2.6,3.3-3.2 c2-0.8,5.2-1.8,7.3-1.8c1.3,0,1.9,0.7,1.9,1.9c0,1.8-0.6,5.4-0.7,6c-0.1,0.5-0.8,5.3-1,6.9c-0.1,0.8,0.5,0.8,1.1,0.8 c0.8,0,1.4,0,1.4,1c0,3.2-6.6,5.1-9,5.1c-1.6,0-3.4-1-3.4-2.7c0-0.8,0.1-1.6,0.3-2.4L138.8,164.6z M138.6,150.9 c0-3.4,6-5.1,8.7-5.1c1.5,0,3.5,0.6,3.5,2.4c0,3.1-5.9,5.2-8.4,5C140.9,153.2,138.6,152.8,138.6,150.9z"></path> <path fill="#FFFFFF" d="M155.2,176.5c-3.8,0-4.7-1.1-4.7-2.6c0-2.4,2.6-1.6,3-2.9c1.4-4.7,2.5-12.7,2.5-17.7c0-2.4-2.8-1.2-2.8-3.5 s2.4-2.9,4.3-2.8c4.2,0.2,8.5,0.1,12.8,0c5.1-0.1,8.4,2.2,8.4,6.8c0,4.2-4.1,6-4.1,6.7c0,1.2,4.6,1,4.6,7.2c0,3.1-2,8.9-10.5,8.9 H155.2z M163.8,171.3c0,0.8,0.6,0.8,1.3,0.8c3,0,3.3-3.2,3.3-5.4c0-2.2-0.6-3.2-2.9-3.2c-1.5,0-1.2,0.2-1.3,1.7L163.8,171.3z M164.9,157.3c-0.1,1-0.3,1.7,0.9,1.7c2.7,0,3.1-3.3,3.1-5.3c0-1.7-0.5-2.6-2.2-2.6c-1.3,0-1.1,0.2-1.3,1.5L164.9,157.3z"></path> <path fill="#FFFFFF" d="M180.3,168.2c0-2.1,1-3.9,3.3-3.9c2.1,0,2.8,2,3.4,3.6c0.8,1.9,2,4,4.3,4c1.4,0,2.8-0.8,2.8-2.4 c0-3.7-10-5.3-10-13.3c0-6.3,5.6-9.7,11.4-9.7c2.1,0,3.7,0.7,4.2,0.7c0.5,0,1.3-0.7,2.5-0.7c2.5,0,4.5,3.8,4.5,6 c0,1.8-1.3,3.6-3.3,3.6c-3.1,0-3.9-4.4-6.8-4.4c-1.1,0-2,0.6-2,1.8c0,1.6,1.4,2.4,2.6,3c4.3,2.4,8.4,4.4,8.4,10 c0,7.4-7.6,10.7-13.9,10.7C186.3,177.1,180.3,174.5,180.3,168.2z"></path> </g> <line fill="#FCFCFC" x1="-333.6" y1="284.6" x2="-350.5" y2="296.7"></line> <line fill="#FCFCFC" x1="-160.4" y1="284.6" x2="-143.5" y2="296.7"></line> <polygon fill="#006BBB" points="60.7,224 31.7,224 10.7,204 60.7,204 "></polygon> <linearGradient id="SVGID_2_" gradientUnits="userSpaceOnUse" x1="35.6667" y1="244" x2="35.6667" y2="224"> <stop offset="0" style="stop-color:#182D3E"></stop> <stop offset="1" style="stop-color:#016BB7"></stop> </linearGradient> <polygon fill="url(#SVGID_2_)" points="60.7,224 31.7,224 10.7,244 60.7,244 "></polygon> <polygon fill="#F9F9F9" points="50,212.8 60.7,212.8 60.7,204 50,212.8 "></polygon> <polygon fill="#006BBB" points="227.2,224 256.2,224 277.2,204 227.2,204 "></polygon> <linearGradient id="SVGID_3_" gradientUnits="userSpaceOnUse" x1="227.1667" y1="234" x2="277.1667" y2="234"> <stop offset="0" style="stop-color:#182D3E"></stop> <stop offset="1" style="stop-color:#016BB7"></stop> </linearGradient> <polygon fill="url(#SVGID_3_)" points="227.2,224 256.2,224 277.2,244 227.2,244 "></polygon> <polygon fill="#F9F9F9" points="237.8,212.8 227.2,212.8 227.2,204 237.8,212.8 "></polygon> <g> <path fill="#FFFFFF" d="M118,53.1c4.7,2.8,9,6.1,12.9,9.5c4,3.4,5.8,7.4,4.5,11.8c-0.3,0.9-1,1.9-2,2.5c-4.4,2.7-7.7,10.5-5.1,13.1 c1.3-0.6,2.5-1.3,3.9-1.8c3.6-1.4,7.3-2.6,10.9-4c1.8-0.7,3.7-1.2,5.2-2.1c4.2-2.4,8.5-2.4,13.3-1c4.3,1.3,5.8,0.8,7.7-2.2 c2.1-3.4,1.7-6.9,1-10.4c-0.3-1.5-0.3-3.2,0.5-4.5c1.7-2.8,3.7-5.6,6.3-8c6.8-6.3,14.3-12.3,21.1-18.6c7.1-6.6,13.8-13.4,20.6-20.1 c1-1,1.5-2.3,2.3-3.5c3.7,2,4.8,4.7,2.7,8.1c-2.6,4-5.7,7.9-8.6,11.9c-0.4,0.6-0.8,1.1-1.3,1.7c0.3,0.1,0.5,0.2,0.8,0.3 c4.1-4.6,8.2-9.1,12.3-13.6c2.6,1.7,3.2,4.4,1.3,7.5c-1.8,2.8-3.6,5.5-4.8,8.5c2.2-2.7,4.4-5.5,6.7-8.4c0.7,1.1,1.2,2,1.8,2.9 c0,1.4,0,2.9,0,4.3c-4.9,7.3-8.9,10.9-25.4,23.1c7.3-3.8,13.9-8,19-13.3c0.2,0.1,0.5,0.1,0.7,0.2c-0.3,1.4-0.2,3-1,4.2 c-1.8,2.7-3.6,5.5-6.4,7.7c-5.1,3.9-11,7.4-16.5,11.2c4.5-2.1,9-4.3,14-6.6c-4.2,7.7-12.5,12.4-22.1,16.5c0.7-0.1,1.4-0.2,2.1-0.3 c0.8-0.1,1.5-0.3,2.3-0.5c0.9,2.9-0.9,4.5-8.4,7c2.2-0.2,3.8-0.4,5.3-0.5c0.5,2.5-1.6,4.1-8.2,5.8c1.7,0,2.9,0,4.4,0 c-1.3,2.7-3.9,4-8.3,4.4c1.3,0.2,2,0.4,2.9,0.6c-2,3.1-5.6,3.7-10,3.6c0.6,0.2,1.3,0.4,2.1,0.7c-3.3,3.1-7.6,2.8-12.2,2.1 c0.9,0.6,1.9,1.2,2.8,1.7c-2.4,1.4-6.1,1.7-11.3,1.1c0.2,0.4,0.4,0.7,0.8,1.4c-3.5,0.1-6.8,0.2-10.5,0.3c0.3,1.3,0.5,2.8,1.1,4.2 c1.2,2.6,2.5,5.1,3.9,7.6c0.6,1.1,1.8,1.6,3.5,0.9c0.4-0.1,0.8-0.2,1.2-0.3c2.2-0.4,4.3-0.9,6.1,0.6c1.7,1.5,1.6,2.5-0.5,4.4 c-0.5-0.9-0.8-1.9-1.7-2.7c-0.3-0.3-1.8,0.1-2.7,0.1c1.2,0.7,2.7,1.2,2.9,1.9c0.2,0.6-0.9,1.5-1.6,2.4c-2.1-2.2-9.3-2.8-11.4-1.5 c0.5,1.5,1.1,2.7,1.3,4c0.1,0.4-0.9,0.9-1.4,1.3c-0.6-0.3-1.3-0.6-1.8-1c-0.6-0.4-1.2-0.9-1.7-1.2c-1.1,1.6-1.9,2.9-2.9,4.2 c-0.2,0.3-1.2,0.3-1.8,0.4c-0.1-0.4-0.3-0.7-0.4-1.1c-0.2-0.7-0.4-1.4-0.6-2.2c-2,0.7-2.6,1.4-1.7,2.5c0.4,0.5,0.7,1.1,1,1.6 c-0.5,0-1.1,0-1.6,0c-3.7-2.2-3.8-3.1-1.6-6c0.6-0.8,0.4-1.8,0.6-2.8c-0.4-0.1-0.7-0.1-1.1-0.2c-1.2,1.1-2.4,2.3-3.7,3.5 c-0.3-0.4-0.6-0.7-0.9-1c-0.1,0-0.3,0.1-0.4,0.1c-5.5,4.1-12.6,5.3-20.4,5.2c-1.5,0-3-1.1-4.6-1.6c-0.6-0.2-1.3-0.2-1.9-0.4 c-2.1-0.4-5.1-0.3-6.2-1.2c-2.4-1.9-5.8-2.1-8.4-3.4c-0.7-0.4-1.3-1-1.9-1.4c-0.5-0.4-1-0.9-1.7-1.2c-2.6-1.4-6.3-2-6.6-4.9 c-0.1-0.6-1.8-1.1-2.6-1.7c-1.6-1.2-3.2-2.5-4.8-3.7c0.1-0.2,0.2-0.4,0.3-0.6c1.9-0.2,3.7-0.4,5.6-0.5c6.3-0.4,12.7-0.7,19-1.2 c0.8-0.1,1.7-0.3,2.4-0.7c3.5-1.6,6.9-3.3,10.8-5.1c-4.4,0-7.7-1.1-10.4-3.3c0.9-0.3,1.7-0.5,2.8-0.7c-4.5-0.3-7.9-1.5-9.8-4.3 c0.7-0.2,1.3-0.4,2.3-0.6c-3.9-1.1-6.2-3-7-5.8c1,0.1,1.8,0.1,3.3,0.2c-4-1.5-6.6-3.3-7-6.5c2.2,0.5,4.2,0.9,6.1,1.4 c-4.6-2-8.5-4.2-7.9-8.4c4.7,1.6,9.2,3.2,13.7,4.7c0.1-0.1,0.2-0.3,0.4-0.4c-2.9-1.2-5.9-2.4-8.6-3.7c-3.1-1.6-6-3.3-8.7-5.2 c-2.5-1.8-3.3-4.2-3-7.1c5,2.8,9.6,5.4,14.3,7.9c-7.3-6.2-17.3-11.2-18.2-20c7.1,5.3,13.8,10.8,22.4,15c-12-9.8-26-18.7-31.9-31.3 c0-1.8,0-3.6,0-5.4c0.9,0.7,1.9,1.4,2.8,2.2c0.8,0.7,1.4,1.5,2.3,2.2c-2.7-4.6-5.1-9.1-2.5-14.6c8.2,9.7,16.1,18.9,26.5,27.1 c-0.4-0.4-0.8-0.8-1.1-1.2c-5.7-5.9-11.8-11.6-17-17.7c-2.7-3.1-4.2-6.8-5.8-10.3c-0.9-1.9-0.2-3.8,1.9-5.3c0.2,0,0.4,0,0.5,0 C83.9,27.4,98.5,41.5,118,53.1z M131.3,93.8c0.5-0.1,1.3-0.1,2.4-0.3c-0.3,0.8-0.5,1.4-0.9,2.2c0.9-0.1,1.6-0.1,2.7-0.3 c-0.8,1.3-1.4,2.4-2.3,3.9c1.8-0.6,3.2-1.1,5.1-1.8c-0.4,1.2-0.7,2-1.1,3.2c1.6-0.5,2.9-0.9,4.7-1.5c-0.6,1.4-1.1,2.4-1.8,3.8 c2-0.7,3.6-1.3,5.6-2c-0.5,1.5-0.8,2.7-1.3,4c1.3-0.5,2.3-0.9,3.5-1.4c0.4,0.6,0.7,1.1,1.2,1.8c1.7-3.3,3.1-6.4,4.8-9.5 c2.6-4.8,2.9-4.8,8.6-1.4c1,0.6,2.1,1.2,3.4,2c-0.8-3-3.7-4.6-7.4-6c4.6,0,11.7,2.9,13.2,5.5c1-0.9,1.9-1.6,2.6-2.4 c1.1-1.2,1-2.2-0.7-3.2c-1.7-1-3.6-2-3.3-3.8c0-0.3-0.7-0.8-1.2-1.1c-1.9-0.9-3.8-1.7-5.8-2.6c-4.1-1.7-8-2.2-12.5-0.1 c-4.5,2.2-9.7,3.7-14.5,5.5c-2.1,0.8-4,1.9-5.7,2.7C131,92.4,131.1,93,131.3,93.8z M98.4,111.5c-7,0.5-13.9,1.2-20.9,1.9 c-0.1,0.3-0.2,0.5-0.3,0.8c1.1,0.5,2.1,1.4,3.3,1.5c2.7,0.2,5.5,0.2,8.1-0.1c5-0.7,9.8-1.7,14.7-2.6c0-0.2,0-0.4,0-0.6 C101.7,112.1,100,111.4,98.4,111.5z M105.6,117.4c-4.7,1.9-9.4,3.7-14.1,5.6c3.4,2.3,5.4,2.5,9,0.7c3.8-1.9,7.3-4,11-6.1 C109.3,116.4,107.5,116.6,105.6,117.4z M91.8,120.4c5.2-1.6,10.2-3.4,15.3-5.1c-0.1-0.2-0.1-0.4-0.2-0.7c-1.3,0-2.7-0.2-3.8,0 c-6.5,1.3-13,2.6-19.9,4C85.8,120.8,88.6,121.4,91.8,120.4z M110.6,125c1.5-1.7,2.9-3.5,4.5-5.4c-2.3-0.4-4-0.2-5.6,0.9 c-2.9,2.1-6.1,3.9-9.2,5.9C105.5,128.4,107.9,128.1,110.6,125z M123.7,127.5c-0.2-0.1-0.5-0.1-0.7-0.2c-0.1-1-0.2-2-0.3-2.7 c-3.3,1.4-6.8,2.9-10.3,4.4c0.1,0.2,0.1,0.3,0.2,0.5c1,0.1,2,0.5,2.8,0.4c3-0.4,6-0.8,8.9-1.4c2.3-0.5,2.5-1.1,2.2-3.6 C125.3,126,124.5,126.7,123.7,127.5z M150,120.1c-2.6,0.9-4.9,1.8-7.2,2.7c-1.2-1-2.4-2-3.7-3.1c-1.7,0.4-1.7,0.4-1,1.6 c1.8,3,2.5,3.4,8,3.4C145.9,122.6,150.6,122.5,150,120.1z M117.6,122.6c-0.1-0.6-0.2-1.1-0.5-2.2c-2,2.7-3.7,4.9-5.4,7.2 c2.2-0.7,4.5-1.2,6.3-2.2c1-0.5,1.3-1.8,2.1-3C118.7,122.5,118.2,122.5,117.6,122.6z M108,69.7c0.4-0.5-0.3-1.5-0.6-2.3 c-3.3,4.2-3.3,8.4-1.9,12.7C105.2,76.5,105.3,73,108,69.7z M110.2,87c-0.4,0.1-0.8,0.1-1.2,0.2c0.7,2.1,1.5,4.1,2.2,6.2 c0.2,0,0.4-0.1,0.7-0.1C111.4,91.1,110.8,89,110.2,87z"></path> <path fill="#FFFFFF" d="M160.9,85.2c1.2,1,2.5,2,3.9,3.2c-1.1,0.5-1.9,0.9-2.8,1.2c2,0.8,4.8,0.5,5.9-0.6c0.3-0.3,0.2-1.1-0.1-1.3 c-2.1-1-4.4-1.9-6.6-2.8C161.1,85,161,85.1,160.9,85.2z"></path> </g> <linearGradient id="SVGID_4_" gradientUnits="userSpaceOnUse" x1="144" y1="252.7678" x2="144" y2="212.7678"> <stop offset="0" style="stop-color:#182D3E"></stop> <stop offset="1" style="stop-color:#016BB7"></stop> </linearGradient> <rect x="50" y="212.8" fill="url(#SVGID_4_)" width="188" height="40"></rect> <g> <path fill="#FFFFFF" d="M61.8,233.3c-0.3,2.5-0.7,4.9-3.8,4.9c-1.8,0-3.4-0.7-3.4-3c0-1.6,0.5-3.4,0.4-4.9c0-1-0.7-0.3-0.7-1.1 c0-0.1-0.3-1.1,2.6-1.1c1.8,0,1.8,0.6,1.8,1c0,1-0.9,0.2-1,1.8c-0.3,3.3-0.3,2.4-0.4,3.7c-0.1,1,0.2,1.6,1,1.6 c0.7,0,1.2-0.4,1.5-1.3c0.4-1.2,0.5-3.3,0.5-4.6c0-1.1-0.9-0.4-0.9-1.4c0-0.5,0.3-0.9,1.8-0.9c1.9,0,1.8,0.6,1.8,0.9 c0,1-0.8,0.3-1,1.5L61.8,233.3z"></path> <path fill="#FFFFFF" d="M67.2,233.6c0-0.3-0.1-0.4-0.3-0.4c-0.8,0-1,2.1-1,3c-0.1,1.5-0.4,1.9-1.8,2c-0.4,0-0.8-0.1-0.8-0.7 c0-0.7,0.5-2.8,0.5-4c0-0.3-0.1-0.4-0.3-0.4h-0.1c-0.2,0-0.3-0.2-0.3-0.4c0-0.4,0.3-0.7,0.6-0.8c0.5-0.3,1.5-0.8,2-0.8 c0.7,0,0.4,1.2,0.7,1.2c0.3,0,1.2-1.2,2.2-1.2c0.6,0,1.3,0.5,1.3,1.4c0,1-0.4,2.7-0.4,3.5c0,0.6,0.5,0.2,0.5,0.8 c0,1-1.7,1.6-2.3,1.6c-0.5,0-0.8-0.3-0.8-0.9c0-0.7,0.2-1.6,0.3-2.4L67.2,233.6z"></path> <path fill="#FFFFFF" d="M73.3,235.4c0,0.2,0,0.5,0.2,0.5c0.1,0,0.2,0,0.3,0c0.2,0,0.2,0.2,0.2,0.4c0,1.2-1.8,1.8-2.6,1.8 c-0.6,0-1-0.3-0.9-1.4c0.2-2.3,0.5-4.8,0.6-6.5c0-0.2,0-0.3-0.2-0.3c-0.1,0-0.2,0-0.3,0c-0.2,0-0.3-0.1-0.3-0.4 c0-0.7,0.5-0.9,1-1.1c0.5-0.2,1.3-0.4,1.9-0.4c0.4,0,0.6,0.1,0.6,0.7L73.3,235.4z"></path> <path fill="#FFFFFF" d="M80.5,232.4c0,1.7-1.5,3-2.8,3c-0.2,0-0.4,0-0.4,0.3c0,0.4,0.4,0.6,0.7,0.6c0.8,0,1.4-0.8,1.8-0.8 c0.2,0,0.4,0.3,0.4,0.6c0,0.7-0.8,1.2-1.2,1.5c-0.6,0.3-1.2,0.6-1.9,0.6c-1.4,0-2.6-0.7-2.5-2.6c0.1-2.9,2.3-4.8,4.3-4.8 C79.7,230.8,80.5,231.2,80.5,232.4z M77.3,233.9c0,0.2,0,0.4,0.2,0.4c0.3,0,0.9-1,0.8-1.7c0-0.2-0.1-0.4-0.3-0.4 C77.6,232.1,77.3,233.4,77.3,233.9z"></path> <path fill="#FFFFFF" d="M87.2,231.4c0,0.8-0.2,2.1-0.3,3.6c0,0.2-0.1,0.7,0,0.9c0,0.2,0.1,0.2,0.2,0.2c0.2,0,0.3,0.1,0.3,0.3 c0,0.9-1.6,1.7-2.3,1.7c-1,0-0.5-1.2-0.9-1.2c-0.3,0-0.8,1.3-2,1.3c-1,0-1.5-1.1-1.4-2.3c0.1-2.5,1.3-4.9,3.1-5.1 c0.8-0.1,1.1,0.6,1.4,0.6c0.1,0,0.3-0.2,0.4-0.2c0.3-0.2,0.6-0.4,1-0.4C87.1,230.8,87.3,231,87.2,231.4z M85,232.8 c0-0.2,0-0.5-0.2-0.4c-0.6,0.1-1.3,2.1-1.3,3c0,0.2,0,0.6,0.3,0.5C84.3,235.9,85,233.5,85,232.8z"></path> <path fill="#FFFFFF" d="M92.2,233c-0.4,0-0.4-0.8-0.9-0.8c-0.2,0-0.3,0.2-0.3,0.4c0,0.9,1.6,1.6,1.6,3.3c0,1.7-1.6,2.4-2.8,2.4 c-0.7,0-2-0.3-2-1.4c0-0.4,0.2-1,0.6-1c0.5,0,0.4,0.9,1,0.9c0.2,0,0.5-0.2,0.5-0.5c0-0.7-1.4-1.5-1.4-3c0-1.7,1.5-2.4,2.7-2.4 c0.6,0,1.7,0.2,1.7,1.2C92.8,232.4,92.6,233,92.2,233z"></path> <path fill="#FFFFFF" d="M96.5,231.4c0,0.2-0.1,0.6,0,0.6c0.2,0,1.1-1.2,2.1-1.2c0.8,0,1.3,0.5,1.3,1.5c0,1.1-0.4,2.6-0.4,3.4 c0,0.7,0.6,0.1,0.6,0.8c-0.1,1-1.7,1.8-2.4,1.7c-0.6,0-0.8-0.3-0.8-1.1c0-0.9,0.5-2.7,0.5-3.4c0-0.3-0.1-0.6-0.3-0.6 c-0.8,0-1.1,2.8-1.1,3.4c0,0.3-0.1,0.8-0.3,1.1c-0.3,0.4-1,0.6-1.4,0.6c-0.5,0-1-0.2-1-0.8c0-0.4,0.2-1.1,0.2-1.5 c0.1-1.1,0.7-4.1,0.7-5.5c0-0.3,0-0.5-0.3-0.5c-0.3,0-0.5,0-0.5-0.4c0-0.6,0.6-0.9,1-1.1c0.5-0.2,1.1-0.4,1.7-0.4 c0.4,0,0.8,0.1,0.8,0.7c0,0.5-0.1,1.3-0.2,1.8L96.5,231.4z"></path> <path fill="#FFFFFF" d="M101.3,234c0-0.3,0.1-0.6,0.1-0.8c0-0.2-0.1-0.3-0.2-0.3c-0.2,0-0.4,0-0.4-0.5c0-0.6,0.5-0.9,0.9-1.1 c0.5-0.3,1.4-0.6,1.9-0.6c0.3,0,0.5,0.2,0.5,0.6c0,0.6-0.2,1.8-0.2,2c0,0.2-0.2,1.8-0.3,2.3c0,0.3,0.1,0.3,0.3,0.3 c0.2,0,0.4,0,0.4,0.3c0,1.1-1.8,1.7-2.4,1.7c-0.4,0-0.9-0.3-0.9-0.9c0-0.3,0-0.5,0.1-0.8L101.3,234z M101.3,229.5 c0-1.1,1.6-1.7,2.3-1.7c0.4,0,0.9,0.2,0.9,0.8c0,1-1.6,1.7-2.3,1.7C101.9,230.2,101.3,230.1,101.3,229.5z"></path> <path fill="#FFFFFF" d="M109,233.6c0-0.3-0.1-0.4-0.3-0.4c-0.8,0-1,2.1-1,3c-0.1,1.5-0.4,1.9-1.8,2c-0.4,0-0.8-0.1-0.8-0.7 c0-0.7,0.5-2.8,0.5-4c0-0.3-0.1-0.4-0.3-0.4h-0.1c-0.2,0-0.3-0.2-0.3-0.4c0-0.4,0.3-0.7,0.6-0.8c0.5-0.3,1.5-0.8,2-0.8 c0.7,0,0.4,1.2,0.7,1.2c0.3,0,1.2-1.2,2.2-1.2c0.6,0,1.3,0.5,1.3,1.4c0,1-0.4,2.7-0.4,3.5c0,0.6,0.5,0.2,0.5,0.8 c0,1-1.7,1.6-2.3,1.6c-0.5,0-0.8-0.3-0.8-0.9c0-0.7,0.2-1.6,0.3-2.4L109,233.6z"></path> <path fill="#FFFFFF" d="M116.8,236.4c0.8,0,1.4,0.5,1.4,1.5c0,2-2,2.5-3.3,2.5c-0.8,0-2.6-0.2-2.6-1.6c0-0.5,0.3-0.6,0.3-0.8 c0-0.2-0.4-0.4-0.4-1.1c0-0.6,0.4-1.1,0.8-1.3c0.1-0.1,0.2-0.1,0.2-0.3c0-0.1-0.1-0.2-0.1-0.3c-0.4-0.4-0.6-0.8-0.6-1.5 c0-2,1.8-2.9,3.1-2.9c0.2,0,0.4,0,0.6,0.1c0.2,0,0.4,0.1,0.6,0.1c0.6,0,0.6-0.9,1-0.9c0.3,0,0.8,0.6,0.8,1c0,0.4-0.2,0.6-0.2,0.8 c0,0.1,0.3,0.5,0.3,1.2c-0.1,2.3-1.8,2.9-3.2,2.9c-0.5,0-0.9-0.1-1-0.1c-0.1,0-0.3,0.1-0.3,0.3c0,0.5,0.7,0.4,1,0.4L116.8,236.4z M115.9,238.9c0-0.2-0.1-0.3-0.2-0.2c-0.9,0.2-1.8-0.1-2-0.1c-0.1,0-0.1,0.2-0.1,0.3c0,0.6,0.9,0.7,1.2,0.7 C115,239.5,115.9,239.4,115.9,238.9z M116.1,232.5c0-0.3-0.1-0.5-0.3-0.5c-0.6,0-0.7,1.6-0.8,2.2c0,0.3,0.1,0.5,0.4,0.5 C116,234.6,116.1,233.1,116.1,232.5z"></path> <path fill="#FFFFFF" d="M124.2,240.7c-1,0-2-0.7-2-2.1c0-0.9,0.5-1.4,1.1-1.4c0.5,0,1,0.4,1,1.1c0,0.2,0,0.5,0,0.7 c0,0.2,0,0.3,0.2,0.3c0.4,0,0.5-0.7,0.5-1c0-1-1.1-4.7-1.5-4.7c-0.2,0-0.4,0.5-0.6,0.5c-0.3,0-0.5-0.5-0.5-0.8 c0.1-0.9,1.9-2.5,2.6-2.5c0.6,0,0.8,0.7,1.1,1.3c0.3,0.9,0.8,3.4,1.1,3.4c0.3,0.1,0.4-1.4,0.4-1.6c0-1-0.5-1.2-0.5-1.9 c0-0.7,0.5-1.1,1-1.1c0.9,0,1,1,1,1.9C129,235.8,127.1,240.7,124.2,240.7z"></path> <path fill="#FFFFFF" d="M129.3,235.4c0-2.7,1.7-4.7,3.8-4.7c1.4,0,2.6,0.9,2.6,2.8c0,2.7-1.7,4.7-3.8,4.7 C130.5,238.2,129.3,237.2,129.3,235.4z M132.1,233.6c-0.1,0.8-0.2,1.7-0.2,2.5c0,0.3,0.1,0.6,0.4,0.6c0.5,0,0.6-0.8,0.6-1.3 c0.1-0.7,0.3-1.8,0.3-2.5c0-0.3-0.1-0.7-0.4-0.7C132.3,232.2,132.2,233.1,132.1,233.6z"></path> <path fill="#FFFFFF" d="M142.7,234.8c0,0.2-0.1,0.4-0.1,0.6c0,0.3,0.1,0.4,0.3,0.4c0.3,0,0.4,0,0.4,0.4c0,1.1-1.9,1.8-2.6,1.8 c-0.7,0-0.4-1.2-0.8-1.2c-0.2,0-1.2,1.3-2.4,1.2c-0.6,0-1-0.5-1-1.4c0-0.8,0.2-1.9,0.3-2.9c0-0.4,0.1-0.7-0.3-0.7 c-0.2,0-0.5-0.1-0.5-0.4c0-0.6,0.6-1,1-1.2c0.5-0.3,1.2-0.6,1.8-0.6c0.4,0,0.6,0.3,0.6,0.8c0,0.5-0.2,1.9-0.3,2.6 c0,0.2-0.3,1.6,0.2,1.6c0.4,0,0.6-0.6,0.7-0.9c0.5-1.3,0.2-3.1,0.8-3.6c0.3-0.4,1.1-0.5,1.5-0.5c0.3,0,0.6,0.1,0.6,0.6 c0,0.2,0,0.5-0.1,0.7L142.7,234.8z"></path> <path fill="#FFFFFF" d="M147,236.1c0.1,1.4-0.4,1.9-1.9,2c-0.4,0-0.9-0.1-0.9-0.7c0-0.8,0.4-2.6,0.5-3.9c0-0.4,0-0.5-0.3-0.5 c-0.3,0-0.5-0.1-0.5-0.6c0-0.8,0.9-1,1.3-1.2c0.3-0.2,0.7-0.4,1-0.4c0.7,0,0.4,1.3,0.7,1.3c0.3,0,0.3-1.3,1.3-1.3 c0.7,0,1.2,0.8,1.2,1.7c0,0.9-0.3,1.7-1.1,1.7c-0.4,0-0.6-0.2-0.8-0.6c0-0.1-0.1-0.3-0.2-0.3c-0.2,0-0.2,0.6-0.2,0.7L147,236.1z"></path> <path fill="#FFFFFF" d="M157.3,233.2c0,0.4,0,0.5-0.3,0.5c-0.3,0-0.3,0.1-0.4,0.5l-0.4,4.3c0,0.6,0.1,1-0.3,1.4 c-0.4,0.3-1.3,0.6-1.7,0.6c-0.4,0-1-0.2-1-0.8c0-0.2,0.1-0.4,0.2-0.5c0.3-0.3,0.2-0.4,0.3-0.9c0.2-1.1,0.5-3.1,0.5-4.2 c0-0.4-0.3-0.4-0.5-0.4c-0.4,0-0.4,0-0.4-0.3c0-0.1,0-0.3,0-0.4l0-0.5c0-0.3,0-0.4,0.2-0.4c0.3,0,0.6,0.1,0.6-0.2 c0-0.3-0.5-0.5-0.5-1.7c0-1.6,1.3-2.4,2.4-2.4c0.7,0,1.5,0.5,1.5,1.5c0,0.7-0.3,1.2-0.9,1.2c-0.4,0-0.7-0.2-1-0.5 c-0.1-0.1-0.3-0.3-0.4-0.3c-0.2,0-0.3,0.2-0.3,0.4c0,0.4,0.2,0.6,0.5,0.7c0.5,0.2,1.1,0.4,1.3,1c0.1,0.3,0.1,0.2,0.3,0.2 c0.4,0,0.4,0,0.4,0.5L157.3,233.2z"></path> <path fill="#FFFFFF" d="M164.4,234.8c0,0.2-0.1,0.4-0.1,0.6c0,0.3,0.1,0.4,0.3,0.4c0.3,0,0.4,0,0.4,0.4c0,1.1-1.9,1.8-2.6,1.8 c-0.7,0-0.4-1.2-0.8-1.2c-0.2,0-1.2,1.3-2.4,1.2c-0.6,0-1-0.5-1-1.4c0-0.8,0.2-1.9,0.3-2.9c0-0.4,0.1-0.7-0.3-0.7 c-0.2,0-0.5-0.1-0.5-0.4c0-0.6,0.6-1,1-1.2c0.5-0.3,1.2-0.6,1.8-0.6c0.4,0,0.6,0.3,0.6,0.8c0,0.5-0.2,1.9-0.3,2.6 c0,0.2-0.3,1.6,0.2,1.6c0.4,0,0.6-0.6,0.7-0.9c0.5-1.3,0.2-3.1,0.8-3.6c0.3-0.4,1.1-0.5,1.5-0.5c0.3,0,0.6,0.1,0.6,0.6 c0,0.2,0,0.5-0.1,0.7L164.4,234.8z"></path> <path fill="#FFFFFF" d="M168.4,235.4c0,0.2,0,0.5,0.2,0.5c0.1,0,0.2,0,0.3,0c0.2,0,0.2,0.2,0.2,0.4c0,1.2-1.8,1.8-2.6,1.8 c-0.6,0-1-0.3-0.9-1.4c0.2-2.3,0.5-4.8,0.6-6.5c0-0.2,0-0.3-0.2-0.3c-0.1,0-0.2,0-0.3,0c-0.2,0-0.3-0.1-0.3-0.4 c0-0.7,0.5-0.9,1-1.1c0.5-0.2,1.3-0.4,1.9-0.4c0.4,0,0.6,0.1,0.6,0.7L168.4,235.4z"></path> <path fill="#FFFFFF" d="M172.7,235.4c0,0.2,0,0.5,0.2,0.5c0.1,0,0.2,0,0.3,0c0.2,0,0.2,0.2,0.2,0.4c0,1.2-1.8,1.8-2.6,1.8 c-0.6,0-1-0.3-0.9-1.4c0.2-2.3,0.5-4.8,0.6-6.5c0-0.2,0-0.3-0.2-0.3c-0.1,0-0.2,0-0.3,0c-0.2,0-0.3-0.1-0.3-0.4 c0-0.7,0.5-0.9,1-1.1c0.5-0.2,1.3-0.4,1.9-0.4c0.4,0,0.6,0.1,0.6,0.7L172.7,235.4z"></path> <path fill="#FFFFFF" d="M178.1,234.1c0-0.2,0-0.6-0.1-0.8c-0.1-0.2-0.2-0.2-0.3-0.2c-0.3,0-0.5-0.1-0.5-0.5c0-0.6,0.6-0.8,1-1 c0.4-0.2,1.2-0.7,1.6-0.7c0.4,0,0.5,0.3,0.5,0.6c0,0.2,0,0.4,0.2,0.4c0.3,0,0.8-1,1.9-1c1.1,0,1.5,1.5,1.5,2.6c0,2-1.1,4.7-2.9,4.7 c-0.1,0-0.3,0-0.4-0.1c-0.1,0-0.2-0.1-0.3-0.1c-0.3,0-0.2,1-0.1,1.2c0.1,0.3,0.6,0.3,0.6,0.7c0,0.7-0.8,0.8-1.2,0.8 c-0.6,0-2.4-0.1-2.4-1.2c0-0.3,0.1-0.4,0.3-0.6c0.2-0.3,0.3-0.4,0.3-0.8L178.1,234.1z M180.2,236.3c0,0.3,0,0.4,0.3,0.4 c0.7,0,1-2.4,1-3c0-0.3,0-0.7-0.4-0.7C180.5,232.9,180.2,235.7,180.2,236.3z"></path> <path fill="#FFFFFF" d="M184.4,235.4c0-2.7,1.7-4.7,3.8-4.7c1.4,0,2.6,0.9,2.6,2.8c0,2.7-1.7,4.7-3.8,4.7 C185.6,238.2,184.4,237.2,184.4,235.4z M187.2,233.6c-0.1,0.8-0.2,1.7-0.2,2.5c0,0.3,0.1,0.6,0.4,0.6c0.5,0,0.6-0.8,0.6-1.3 c0.1-0.7,0.3-1.8,0.3-2.5c0-0.3-0.1-0.7-0.4-0.7C187.4,232.2,187.3,233.1,187.2,233.6z"></path> <path fill="#FFFFFF" d="M194.2,234.9c-0.1,0.6,0,1,0.3,1c0.3,0,0.5-0.3,0.6-0.3c0.2,0,0.3,0.3,0.3,0.5c0,1.1-2.1,2-2.8,2 c-0.7,0-1.1-0.4-1.1-1.3c0-0.4,0.1-0.9,0.1-1.3l0.3-2.5c0.1-0.5,0-0.6-0.4-0.6c-0.3,0-0.4-0.1-0.4-0.5c0-0.6,0.2-0.9,0.7-1 c0.4-0.1,0.4-0.2,0.5-0.8c0.1-0.4,0.2-0.8,0.5-1c0.4-0.2,1-0.3,1.4-0.3c0.3,0,0.4,0.2,0.4,0.5c0,0.3-0.1,1.1-0.1,1.3 c0,0.4,0.4,0.3,0.7,0.3c0.1,0,0.3,0,0.3,0.3c0,0.2,0,0.4-0.1,0.6c0,0.3,0,0.6-0.3,0.6c-0.8,0-0.8,0-0.9,1.2L194.2,234.9z"></path> <path fill="#FFFFFF" d="M201.9,232.4c0,1.7-1.5,3-2.8,3c-0.2,0-0.4,0-0.4,0.3c0,0.4,0.4,0.6,0.7,0.6c0.8,0,1.4-0.8,1.8-0.8 c0.2,0,0.4,0.3,0.4,0.6c0,0.7-0.8,1.2-1.2,1.5c-0.6,0.3-1.2,0.6-1.9,0.6c-1.4,0-2.6-0.7-2.5-2.6c0.1-2.9,2.3-4.8,4.3-4.8 C201.2,230.8,201.9,231.2,201.9,232.4z M198.7,233.9c0,0.2,0,0.4,0.2,0.4c0.3,0,0.9-1,0.8-1.7c0-0.2-0.1-0.4-0.3-0.4 C199,232.1,198.7,233.4,198.7,233.9z"></path> <path fill="#FFFFFF" d="M206.6,233.6c0-0.3-0.1-0.4-0.3-0.4c-0.8,0-1,2.1-1,3c-0.1,1.5-0.4,1.9-1.8,2c-0.4,0-0.8-0.1-0.8-0.7 c0-0.7,0.5-2.8,0.5-4c0-0.3-0.1-0.4-0.3-0.4h-0.1c-0.2,0-0.3-0.2-0.3-0.4c0-0.4,0.3-0.7,0.6-0.8c0.5-0.3,1.5-0.8,2-0.8 c0.7,0,0.4,1.2,0.7,1.2c0.3,0,1.2-1.2,2.2-1.2c0.6,0,1.3,0.5,1.3,1.4c0,1-0.4,2.7-0.4,3.5c0,0.6,0.5,0.2,0.5,0.8 c0,1-1.7,1.6-2.3,1.6c-0.5,0-0.8-0.3-0.8-0.9c0-0.7,0.2-1.6,0.3-2.4L206.6,233.6z"></path> <path fill="#FFFFFF" d="M212.8,234.9c-0.1,0.6,0,1,0.3,1c0.3,0,0.5-0.3,0.6-0.3c0.2,0,0.3,0.3,0.3,0.5c0,1.1-2.1,2-2.8,2 c-0.7,0-1.1-0.4-1.1-1.3c0-0.4,0.1-0.9,0.1-1.3l0.3-2.5c0.1-0.5,0-0.6-0.4-0.6c-0.3,0-0.4-0.1-0.4-0.5c0-0.6,0.2-0.9,0.7-1 c0.4-0.1,0.4-0.2,0.5-0.8c0.1-0.4,0.2-0.8,0.5-1c0.4-0.2,1-0.3,1.4-0.3c0.3,0,0.4,0.2,0.4,0.5c0,0.3-0.1,1.1-0.1,1.3 c0,0.4,0.4,0.3,0.7,0.3c0.1,0,0.3,0,0.3,0.3c0,0.2,0,0.4-0.1,0.6c0,0.3,0,0.6-0.3,0.6c-0.8,0-0.8,0-0.9,1.2L212.8,234.9z"></path> <path fill="#FFFFFF" d="M215.3,234c0-0.3,0.1-0.6,0.1-0.8c0-0.2-0.1-0.3-0.2-0.3c-0.2,0-0.4,0-0.4-0.5c0-0.6,0.5-0.9,0.9-1.1 c0.5-0.3,1.4-0.6,1.9-0.6c0.3,0,0.5,0.2,0.5,0.6c0,0.6-0.2,1.8-0.2,2c0,0.2-0.2,1.8-0.3,2.3c0,0.3,0.1,0.3,0.3,0.3 c0.2,0,0.4,0,0.4,0.3c0,1.1-1.8,1.7-2.4,1.7c-0.4,0-0.9-0.3-0.9-0.9c0-0.3,0-0.5,0.1-0.8L215.3,234z M215.2,229.5 c0-1.1,1.6-1.7,2.3-1.7c0.4,0,0.9,0.2,0.9,0.8c0,1-1.6,1.7-2.3,1.7C215.8,230.2,215.2,230.1,215.2,229.5z"></path> <path fill="#FFFFFF" d="M225,231.4c0,0.8-0.2,2.1-0.3,3.6c0,0.2-0.1,0.7,0,0.9c0,0.2,0.1,0.2,0.2,0.2c0.2,0,0.3,0.1,0.3,0.3 c0,0.9-1.6,1.7-2.3,1.7c-1,0-0.5-1.2-0.9-1.2c-0.3,0-0.8,1.3-2,1.3c-1,0-1.5-1.1-1.4-2.3c0.1-2.5,1.3-4.9,3.1-5.1 c0.8-0.1,1.1,0.6,1.4,0.6c0.1,0,0.3-0.2,0.4-0.2c0.3-0.2,0.6-0.4,1-0.4C224.9,230.8,225.1,231,225,231.4z M222.8,232.8 c0-0.2,0-0.5-0.2-0.4c-0.6,0.1-1.3,2.1-1.3,3c0,0.2,0,0.6,0.3,0.5C222.1,235.9,222.8,233.5,222.8,232.8z"></path> <path fill="#FFFFFF" d="M228.7,235.4c0,0.2,0,0.5,0.2,0.5c0.1,0,0.2,0,0.3,0c0.2,0,0.2,0.2,0.2,0.4c0,1.2-1.8,1.8-2.6,1.8 c-0.6,0-1-0.3-0.9-1.4c0.2-2.3,0.5-4.8,0.6-6.5c0-0.2,0-0.3-0.2-0.3c-0.1,0-0.2,0-0.3,0c-0.2,0-0.3-0.1-0.3-0.4 c0-0.7,0.5-0.9,1-1.1c0.5-0.2,1.3-0.4,1.9-0.4c0.4,0,0.6,0.1,0.6,0.7L228.7,235.4z"></path> </g> </svg> 