<svg xmlns="http://www.w3.org/2000/svg" viewBox="0 0 1270 260" xml:space="preserve"><linearGradient id="a" gradientUnits="userSpaceOnUse" x1="144" y1="204" x2="144" y2="3"><stop offset="0" style="stop-color:#182d3e"/><stop offset="1" style="stop-color:#016bb7"/></linearGradient><path fill="url(#a)" d="M238 143.7v1.3c0 27.6-42.1 59-94 59s-94-31.4-94-59V15c0-6.6 5.4-12 12-12h164c6.6 0 12 5.4 12 12v128.7z"/><g fill="#0D4F81"><path d="M369.2 83V18.2h27.4c.6 0 1.5 0 2.5.1 1.1 0 2 .1 2.9.3 3.9.6 7 1.9 9.5 3.8 2.5 2 4.3 4.4 5.5 7.4 1.2 3 1.8 6.2 1.8 9.9 0 5.4-1.3 10.1-4 13.9-2.7 3.9-6.9 6.2-12.7 7.1l-5.4.4h-15.1v22h-12.4zm12.3-33.4h14.6c.6 0 1.3 0 2.1-.1.7-.1 1.4-.2 2.1-.4 1.6-.5 2.9-1.2 3.8-2.3s1.5-2.3 1.9-3.6c.3-1.3.5-2.5.5-3.7s-.2-2.4-.5-3.7c-.3-1.3-1-2.5-1.9-3.6-.9-1.1-2.2-1.8-3.8-2.3-.6-.2-1.3-.3-2.1-.4-.8-.1-1.4-.1-2.1-.1h-14.6v20.2zM405.8 83 393 56.6l12.6-2.4 14 28.8h-13.8zM430.4 27.6V16.9h12.2v10.8h-12.2zm0 55.4V34.4h12.2V83h-12.2zM452.6 43.9v-9.5h31.1v9.5h-31.1zm7.6 39.1V34.6c0-1.2 0-2.6.1-4.2s.3-3.1.7-4.7c.4-1.6 1.2-3 2.4-4.3 1.5-1.7 3.1-2.8 4.9-3.4 1.8-.6 3.5-.9 5.1-1 1.6 0 3.1-.1 4.2-.1h6v9.9H478c-1.9 0-3.3.5-4.3 1.5-.9 1-1.4 2.1-1.4 3.5V83h-12.1zM485.5 43.9v-9.5h34.6v9.5h-34.6zM520.1 83c-3.4.6-6.7.9-9.9.8-3.2-.1-6.1-.6-8.6-1.7s-4.5-2.8-5.8-5.2c-1.2-2.2-1.8-4.5-1.9-6.8-.1-2.3-.1-4.9-.1-7.8V20.9H506v40.8c0 1.9 0 3.6.1 5.1 0 1.5.4 2.7.9 3.6 1.1 1.7 2.8 2.6 5.2 2.8 2.4.2 5 0 7.9-.4V83zM562.8 83 543 18.2h12.6l16.2 53.3 16.5-53.3h12.6L581.1 83h-18.3zM617.1 84.4c-3.5 0-6.4-.7-8.8-2-2.4-1.3-4.2-3.1-5.5-5.4-1.2-2.2-1.9-4.7-1.9-7.4 0-2.3.3-4.3 1-6.2.7-1.9 1.8-3.5 3.4-4.9 1.5-1.4 3.6-2.6 6.2-3.6 1.8-.7 3.9-1.2 6.4-1.8 2.5-.5 5.3-1 8.5-1.5 3.1-.5 6.6-1 10.4-1.6l-4.4 2.4c0-2.9-.7-5-2.1-6.3s-3.7-2-6.9-2c-1.8 0-3.7.4-5.6 1.3-2 .9-3.3 2.4-4.1 4.6l-11.1-3.5c1.2-4 3.5-7.3 6.9-9.8 3.4-2.5 8-3.8 13.9-3.8 4.3 0 8.1.7 11.4 2 3.3 1.3 5.9 3.6 7.6 6.8 1 1.8 1.5 3.6 1.7 5.4.2 1.8.3 3.8.3 6V83h-10.7V73l1.5 2.1c-2.4 3.3-4.9 5.6-7.7 7.1-2.7 1.4-6.2 2.2-10.4 2.2zm2.6-9.7c2.3 0 4.1-.4 5.7-1.2 1.5-.8 2.8-1.7 3.7-2.7.9-1 1.5-1.9 1.9-2.6.6-1.3 1-2.9 1.1-4.6.1-1.8.2-3.2.2-4.4l3.6.9c-3.6.6-6.6 1.1-8.8 1.5-2.3.4-4.1.8-5.4 1.1-1.4.3-2.6.7-3.6 1.1-1.2.5-2.2 1-2.9 1.6-.7.6-1.3 1.2-1.6 1.8-.3.7-.5 1.4-.5 2.2 0 1.1.3 2.1.8 2.9.6.8 1.3 1.4 2.4 1.8.8.4 2 .6 3.4.6zM657 83V16.9h12.2V83H657zM683.6 83V16.9h12.2V83h-12.2zM731.9 84.4c-5 0-9.4-1.1-13.2-3.2s-6.8-5.1-8.9-8.9c-2.1-3.8-3.2-8.1-3.2-12.9 0-5.3 1-9.9 3.1-13.9s5-7 8.7-9.2c3.7-2.2 7.9-3.3 12.7-3.3 5.1 0 9.4 1.2 13 3.6 3.6 2.4 6.2 5.8 7.9 10.1 1.7 4.4 2.3 9.5 1.8 15.3h-12.1v-4.5c0-5-.8-8.5-2.4-10.7-1.6-2.2-4.1-3.3-7.7-3.3-4.2 0-7.2 1.3-9.2 3.8s-2.9 6.3-2.9 11.2c0 4.5 1 8 2.9 10.5s4.9 3.7 8.7 3.7c2.4 0 4.5-.5 6.2-1.6 1.7-1 3-2.6 3.9-4.5l12.2 3.5c-1.8 4.4-4.7 7.9-8.7 10.4-3.8 2.6-8.1 3.9-12.8 3.9zm-16.1-22.3V53H748v9.1h-32.2zM769.4 104.6l9.4-25.7.2 7.6-21.2-52h12.7l14.2 36.8h-2.9l14.1-36.8h12.2l-27.5 70.2h-11.2zM833.4 83V18.2h12.2V83h-12.2zM859 83V34.4h10.9v16.1h1.5V83H859zm33.2 0V60c0-1.1-.1-2.5-.2-4.3-.1-1.7-.5-3.5-1.1-5.2-.6-1.7-1.7-3.2-3.1-4.4s-3.4-1.8-6.1-1.8c-1 0-2.2.2-3.4.5-1.2.3-2.3 1-3.4 1.9-1 .9-1.9 2.3-2.6 4.2-.7 1.8-1 4.3-1 7.3l-7-3.3c0-3.8.8-7.4 2.3-10.8 1.6-3.4 3.9-6.1 7-8.1s7.1-3.1 11.9-3.1c3.8 0 6.9.6 9.3 1.9 2.4 1.3 4.3 2.9 5.6 4.9 1.3 2 2.3 4 2.9 6.2.6 2.1.9 4.1 1 5.9.1 1.8.2 3.1.2 3.9V83h-12.3zM935.3 84.4c-6.1 0-11.1-1.4-14.8-4.2-3.8-2.8-6.1-6.7-6.9-11.8l12.5-1.9c.5 2.3 1.6 4.1 3.4 5.4 1.8 1.3 4 1.9 6.7 1.9 2.2 0 3.9-.4 5.1-1.3 1.2-.9 1.8-2 1.8-3.6 0-1-.2-1.7-.7-2.3-.5-.6-1.6-1.2-3.2-1.7-1.7-.6-4.3-1.3-7.8-2.3-4-1-7.1-2.2-9.5-3.4-2.4-1.3-4.1-2.8-5.1-4.5-1-1.8-1.6-3.9-1.6-6.4 0-3.1.8-5.8 2.4-8.1 1.6-2.3 3.8-4.1 6.7-5.3 2.9-1.2 6.3-1.9 10.2-1.9 3.8 0 7.2.6 10.1 1.8 2.9 1.2 5.3 2.8 7.1 5 1.8 2.2 2.9 4.7 3.4 7.7l-12.5 2.3c-.2-1.8-1-3.2-2.3-4.3-1.3-1-3.2-1.7-5.5-1.8-2.3-.1-4.1.2-5.4.9-1.4.8-2 1.8-2 3.2 0 .8.3 1.5.9 2.1.6.6 1.8 1.2 3.6 1.8 1.8.6 4.7 1.4 8.4 2.3 3.7 1 6.7 2.1 8.9 3.4 2.2 1.3 3.9 2.8 4.9 4.6 1 1.8 1.5 3.9 1.5 6.5 0 5-1.8 8.9-5.4 11.7-3.5 2.7-8.5 4.2-14.9 4.2zM960.2 43.9v-9.5h34.6v9.5h-34.6zM994.7 83c-3.4.6-6.7.9-9.9.8-3.2-.1-6.1-.6-8.6-1.7s-4.5-2.8-5.8-5.2c-1.2-2.2-1.8-4.5-1.9-6.8-.1-2.3-.1-4.9-.1-7.8V20.9h12.2v40.8c0 1.9 0 3.6.1 5.1 0 1.5.4 2.7.9 3.6 1.1 1.7 2.8 2.6 5.2 2.8 2.4.2 5 0 7.9-.4V83zM1006.4 27.6V16.9h12.2v10.8h-12.2zm0 55.4V34.4h12.2V83h-12.2zM1026.8 43.9v-9.5h34.6v9.5h-34.6zm34.5 39.1c-3.4.6-6.7.9-9.9.8-3.2-.1-6.1-.6-8.6-1.7s-4.5-2.8-5.8-5.2c-1.2-2.2-1.8-4.5-1.9-6.8-.1-2.3-.1-4.9-.1-7.8V20.9h12.2v40.8c0 1.9 0 3.6.1 5.1 0 1.5.4 2.7.9 3.6 1.1 1.7 2.8 2.6 5.2 2.8 2.4.2 5 0 7.9-.4V83zM1090.2 84.4c-3.8 0-6.9-.6-9.3-1.9-2.4-1.3-4.3-2.9-5.6-4.9-1.3-2-2.3-4-2.9-6.2-.6-2.1-.9-4.1-1-5.9-.1-1.8-.2-3.1-.2-3.9V34.4h12.4v23c0 1.1.1 2.5.2 4.3.1 1.7.5 3.5 1.1 5.2.6 1.7 1.7 3.2 3.1 4.4s3.4 1.8 6.1 1.8c1 0 2.2-.2 3.4-.5 1.2-.3 2.3-1 3.4-1.9 1-.9 1.9-2.3 2.6-4.2.7-1.8 1-4.3 1-7.3l7 3.3c0 3.8-.8 7.4-2.3 10.8-1.6 3.4-3.9 6.1-7 8.1s-7.2 3-12 3zM1106 83V66.9h-1.5V34.4h12.3V83H1106zM1124 43.9v-9.5h34.6v9.5H1124zm34.5 39.1c-3.4.6-6.7.9-9.9.8-3.2-.1-6.1-.6-8.6-1.7s-4.5-2.8-5.8-5.2c-1.2-2.2-1.8-4.5-1.9-6.8-.1-2.3-.1-4.9-.1-7.8V20.9h12.2v40.8c0 1.9 0 3.6.1 5.1 0 1.5.4 2.7.9 3.6 1.1 1.7 2.8 2.6 5.2 2.8 2.4.2 5 0 7.9-.4V83zM1189.2 84.4c-5 0-9.4-1.1-13.2-3.2-3.8-2.1-6.8-5.1-8.9-8.9-2.1-3.8-3.2-8.1-3.2-12.9 0-5.3 1-9.9 3.2-13.9 2.1-3.9 5-7 8.7-9.2 3.7-2.2 7.9-3.3 12.7-3.3 5.1 0 9.4 1.2 13 3.6 3.6 2.4 6.2 5.8 7.9 10.1 1.7 4.4 2.3 9.5 1.8 15.3h-12.1v-4.5c0-5-.8-8.5-2.4-10.7-1.6-2.2-4.1-3.3-7.7-3.3-4.2 0-7.2 1.3-9.2 3.8-2 2.5-2.9 6.3-2.9 11.2 0 4.5 1 8 2.9 10.5 2 2.5 4.9 3.7 8.7 3.7 2.4 0 4.5-.5 6.2-1.6 1.7-1 3-2.6 3.9-4.5l12.2 3.5c-1.8 4.4-4.7 7.9-8.7 10.4s-8.2 3.9-12.9 3.9zm-16.1-22.3V53h32.2v9.1h-32.2zM381.4 184.3c-4.9 0-9.2-1.1-12.9-3.3-3.7-2.2-6.6-5.2-8.6-9.1-2.1-3.9-3.1-8.3-3.1-13.3 0-5.1 1-9.5 3.1-13.4 2.1-3.9 5-6.9 8.7-9s7.9-3.2 12.7-3.2c4.9 0 9.2 1.1 12.9 3.3 3.7 2.2 6.6 5.2 8.7 9.1 2.1 3.9 3.1 8.3 3.1 13.3s-1 9.5-3.1 13.3c-2.1 3.9-5 6.9-8.7 9-3.7 2.3-7.9 3.3-12.8 3.3zm0-11.4c3.9 0 6.9-1.3 8.8-4 1.9-2.7 2.9-6.1 2.9-10.2 0-4.3-1-7.8-2.9-10.4-2-2.6-4.9-3.9-8.8-3.9-2.7 0-4.9.6-6.6 1.8-1.7 1.2-3 2.9-3.8 5-.8 2.1-1.2 4.6-1.2 7.4 0 4.4 1 7.8 2.9 10.4 2 2.6 4.9 3.9 8.7 3.9zM412.4 143.8v-9.4h31.1v9.4h-31.1zM420 183v-48.4c0-1.2 0-2.6.1-4.2s.3-3.1.7-4.7c.4-1.6 1.2-3 2.4-4.3 1.5-1.7 3.1-2.8 4.9-3.4 1.8-.6 3.5-.9 5.1-1 1.6 0 3.1-.1 4.2-.1h6v9.9h-5.6c-1.9 0-3.3.5-4.3 1.5-.9 1-1.4 2.1-1.4 3.5V183H420zM468.7 183v-64.8h25.9c4.6 0 8.4.9 11.2 2.8 2.9 1.8 4.9 4.2 6.3 7 1.3 2.8 2 5.6 2 8.5 0 3.6-.8 6.6-2.5 9-1.6 2.4-3.9 4-6.7 4.8V148c4 .8 7.1 2.7 9.1 5.6 2 2.9 3 6.2 3 9.8 0 3.9-.7 7.3-2.1 10.2-1.4 2.9-3.6 5.2-6.5 6.9-2.9 1.7-6.6 2.5-11 2.5h-28.7zm12.4-39.5h13.3c1.4 0 2.6-.2 3.7-.7 1.1-.5 1.9-1.2 2.6-2.2.6-1 .9-2.3.9-3.9 0-2-.6-3.6-1.8-5-1.2-1.3-3-2-5.4-2h-13.3v13.8zm0 28h15c1.6 0 3.1-.4 4.4-1.1 1.3-.7 2.3-1.7 3-3 .7-1.3 1.1-2.8 1.1-4.5 0-1.5-.3-2.9-.9-4.1s-1.6-2.2-2.9-2.9c-1.3-.7-2.9-1.1-4.7-1.1h-15v16.7zM544.1 184.4c-3.8 0-6.9-.6-9.3-1.9-2.4-1.3-4.3-2.9-5.6-4.9-1.3-2-2.3-4-2.9-6.2-.6-2.1-.9-4.1-1-5.9-.1-1.8-.2-3.1-.2-3.9v-27.3h12.4v22.9c0 1.1.1 2.5.2 4.3.1 1.7.5 3.5 1.1 5.2.6 1.7 1.7 3.2 3.1 4.4 1.4 1.2 3.4 1.8 6.1 1.8 1 0 2.2-.2 3.4-.5 1.2-.3 2.3-1 3.4-1.9 1-.9 1.9-2.3 2.6-4.2.7-1.8 1-4.3 1-7.3l7 3.3c0 3.8-.8 7.4-2.3 10.8-1.6 3.4-3.9 6.1-7 8.1-3.3 2.2-7.2 3.2-12 3.2zm15.8-1.4v-16.1h-1.5v-32.5h12.3V183h-10.8zM602.3 184.3c-6.1 0-11.1-1.4-14.8-4.2-3.8-2.8-6.1-6.7-6.9-11.8l12.5-1.9c.5 2.3 1.6 4.1 3.4 5.4 1.8 1.3 4 1.9 6.7 1.9 2.2 0 3.9-.4 5.1-1.3 1.2-.9 1.8-2 1.8-3.6 0-1-.2-1.7-.7-2.3-.5-.6-1.6-1.2-3.2-1.7s-4.3-1.3-7.8-2.3c-4-1-7.1-2.2-9.5-3.4-2.4-1.3-4.1-2.8-5.1-4.5-1.1-1.8-1.6-3.9-1.6-6.4 0-3.1.8-5.8 2.4-8.1 1.6-2.3 3.8-4.1 6.7-5.3 2.9-1.2 6.3-1.9 10.2-1.9 3.8 0 7.2.6 10.1 1.8 2.9 1.2 5.3 2.8 7.1 5 1.8 2.2 2.9 4.7 3.4 7.7l-12.5 2.3c-.2-1.8-1-3.2-2.3-4.3-1.4-1-3.2-1.7-5.5-1.8-2.3-.2-4.1.2-5.4.9-1.4.8-2 1.8-2 3.2 0 .8.3 1.5.9 2.1.6.6 1.8 1.2 3.6 1.8 1.8.6 4.7 1.4 8.4 2.3 3.7 1 6.7 2.1 8.9 3.4s3.9 2.8 4.9 4.6c1 1.8 1.5 3.9 1.5 6.5 0 5-1.8 8.9-5.4 11.7s-8.6 4.2-14.9 4.2zM633.4 127.6v-10.8h12.2v10.8h-12.2zm0 55.4v-48.6h12.2V183h-12.2zM659 183v-48.6h10.9v16.1h1.5V183H659zm33.3 0v-23c0-1.1-.1-2.5-.2-4.3-.1-1.7-.5-3.5-1.1-5.2-.6-1.7-1.7-3.2-3.1-4.4-1.4-1.2-3.4-1.8-6.1-1.8-1.1 0-2.2.2-3.4.5-1.2.3-2.3 1-3.4 1.9-1.1.9-1.9 2.3-2.6 4.2-.7 1.8-1 4.3-1 7.3l-7-3.3c0-3.8.8-7.4 2.3-10.8 1.6-3.4 3.9-6.1 7-8.1 3.1-2.1 7.1-3.1 11.9-3.1 3.8 0 6.9.6 9.3 1.9 2.4 1.3 4.3 2.9 5.6 4.9s2.3 4 2.9 6.2c.6 2.1.9 4.1 1 5.9.1 1.8.2 3.1.2 3.9V183h-12.3zM738.1 184.3c-5 0-9.4-1.1-13.2-3.2-3.8-2.1-6.8-5.1-8.9-8.9-2.1-3.8-3.2-8.1-3.2-12.9 0-5.3 1-9.9 3.2-13.9 2.1-3.9 5-7 8.7-9.2 3.7-2.2 7.9-3.3 12.7-3.3 5.1 0 9.4 1.2 13 3.6 3.6 2.4 6.2 5.8 7.9 10.1s2.3 9.5 1.8 15.3H748v-4.5c0-5-.8-8.5-2.4-10.7-1.6-2.2-4.1-3.3-7.7-3.3-4.2 0-7.2 1.3-9.2 3.8s-2.9 6.3-2.9 11.2c0 4.5 1 8 2.9 10.5 2 2.5 4.9 3.7 8.7 3.7 2.4 0 4.5-.5 6.2-1.6 1.7-1.1 3-2.6 3.9-4.5l12.2 3.5c-1.8 4.4-4.7 7.9-8.7 10.3-3.9 2.8-8.3 4-12.9 4zM722 162.1V153h32.2v9.1H722zM789.2 184.3c-6.1 0-11.1-1.4-14.8-4.2-3.8-2.8-6.1-6.7-6.9-11.8l12.5-1.9c.5 2.3 1.6 4.1 3.4 5.4 1.8 1.3 4 1.9 6.7 1.9 2.2 0 3.9-.4 5.1-1.3 1.2-.9 1.8-2 1.8-3.6 0-1-.2-1.7-.7-2.3s-1.6-1.2-3.2-1.7-4.3-1.3-7.8-2.3c-4-1-7.1-2.2-9.5-3.4-2.4-1.3-4.1-2.8-5.1-4.5-1.1-1.8-1.6-3.9-1.6-6.4 0-3.1.8-5.8 2.4-8.1s3.8-4.1 6.7-5.3c2.9-1.2 6.3-1.9 10.2-1.9 3.8 0 7.2.6 10.1 1.8s5.3 2.8 7.1 5c1.8 2.2 2.9 4.7 3.4 7.7l-12.5 2.3c-.2-1.8-1-3.2-2.3-4.3-1.4-1-3.2-1.7-5.5-1.8-2.3-.2-4.1.2-5.4.9s-2 1.8-2 3.2c0 .8.3 1.5.9 2.1.6.6 1.8 1.2 3.6 1.8 1.8.6 4.7 1.4 8.4 2.3 3.7 1 6.7 2.1 8.9 3.4 2.2 1.3 3.9 2.8 4.9 4.6 1 1.8 1.5 3.9 1.5 6.5 0 5-1.8 8.9-5.4 11.7-3.6 2.8-8.6 4.2-14.9 4.2zM838.4 184.3c-6.1 0-11.1-1.4-14.8-4.2-3.8-2.8-6.1-6.7-6.9-11.8l12.5-1.9c.5 2.3 1.6 4.1 3.4 5.4 1.8 1.3 4 1.9 6.7 1.9 2.2 0 3.9-.4 5.1-1.3 1.2-.9 1.8-2 1.8-3.6 0-1-.2-1.7-.7-2.3s-1.6-1.2-3.2-1.7-4.3-1.3-7.8-2.3c-4-1-7.1-2.2-9.5-3.4-2.4-1.3-4.1-2.8-5.1-4.5-1.1-1.8-1.6-3.9-1.6-6.4 0-3.1.8-5.8 2.4-8.1s3.8-4.1 6.7-5.3c2.9-1.2 6.3-1.9 10.2-1.9 3.8 0 7.2.6 10.1 1.8s5.3 2.8 7.1 5c1.8 2.2 2.9 4.7 3.4 7.7l-12.5 2.3c-.2-1.8-1-3.2-2.3-4.3-1.4-1-3.2-1.7-5.5-1.8-2.3-.2-4.1.2-5.4.9s-2 1.8-2 3.2c0 .8.3 1.5.9 2.1.6.6 1.8 1.2 3.6 1.8 1.8.6 4.7 1.4 8.4 2.3 3.7 1 6.7 2.1 8.9 3.4 2.2 1.3 3.9 2.8 4.9 4.6 1 1.8 1.5 3.9 1.5 6.5 0 5-1.8 8.9-5.4 11.7-3.5 2.8-8.5 4.2-14.9 4.2zM911.1 184.3c-4.8 0-9.1-.8-13-2.5s-7-4.1-9.5-7.3-4-6.9-4.7-11.3l12.8-1.9c.9 3.7 2.8 6.6 5.6 8.6s6 3 9.6 3c2 0 4-.3 5.8-.9 1.9-.6 3.4-1.6 4.7-2.8 1.2-1.2 1.8-2.7 1.8-4.5 0-.7-.1-1.3-.3-1.9-.2-.6-.5-1.2-1-1.7s-1.1-1-1.9-1.5c-.8-.5-1.9-.9-3.1-1.3l-16.8-5c-1.3-.4-2.7-.9-4.4-1.5-1.7-.7-3.3-1.6-4.8-2.8s-2.9-2.9-3.9-4.9c-1-2-1.6-4.6-1.6-7.7 0-4.3 1.1-8 3.3-10.8 2.2-2.9 5.1-5 8.8-6.4 3.7-1.4 7.7-2.1 12.2-2.1 4.5.1 8.5.8 12 2.3 3.5 1.5 6.5 3.6 8.8 6.4 2.4 2.8 4.1 6.2 5.1 10.3l-13.2 2.3c-.5-2.1-1.4-3.9-2.7-5.3-1.3-1.4-2.8-2.5-4.6-3.3-1.8-.7-3.7-1.2-5.6-1.2-1.9-.1-3.7.2-5.4.8-1.7.6-3.1 1.4-4.1 2.5s-1.6 2.4-1.6 4c0 1.4.4 2.6 1.3 3.4.9.9 2 1.6 3.3 2.1 1.3.5 2.7 1 4 1.3l11.3 3.1c1.7.4 3.5 1 5.6 1.8 2 .7 4 1.8 5.9 3.1 1.9 1.3 3.4 3 4.6 5.2 1.2 2.1 1.8 4.8 1.8 8.1 0 3.5-.7 6.5-2.2 9.1-1.5 2.6-3.4 4.7-5.9 6.4-2.5 1.7-5.2 3-8.3 3.8-3.2.6-6.4 1-9.7 1zM941.6 143.8v-9.4h34.6v9.4h-34.6zm34.6 39.2c-3.4.6-6.7.9-9.9.8-3.2-.1-6.1-.6-8.6-1.7s-4.5-2.8-5.8-5.2c-1.2-2.2-1.8-4.5-1.9-6.8-.1-2.3-.1-4.9-.1-7.8v-41.5h12.2v40.8c0 1.9 0 3.6.1 5.1 0 1.5.4 2.7.9 3.6 1.1 1.7 2.8 2.6 5.2 2.8 2.4.2 5 0 7.9-.4V183zM1005.1 184.4c-3.8 0-6.9-.6-9.3-1.9-2.4-1.3-4.3-2.9-5.6-4.9-1.3-2-2.3-4-2.9-6.2-.6-2.1-.9-4.1-1-5.9-.1-1.8-.2-3.1-.2-3.9v-27.3h12.4v22.9c0 1.1.1 2.5.2 4.3.1 1.7.5 3.5 1.1 5.2.6 1.7 1.7 3.2 3.1 4.4s3.4 1.8 6.1 1.8c1 0 2.2-.2 3.4-.5 1.2-.3 2.3-1 3.4-1.9 1-.9 1.9-2.3 2.6-4.2.7-1.8 1-4.3 1-7.3l7 3.3c0 3.8-.8 7.4-2.3 10.8-1.6 3.4-3.9 6.1-7 8.1s-7.2 3.2-12 3.2zm15.7-1.4v-16.1h-1.5v-32.5h12.3V183h-10.8zM1063.9 184.3c-4.5 0-8.4-1.1-11.7-3.4s-6-5.3-7.9-9.2-2.8-8.2-2.8-13.1c0-5 1-9.4 2.9-13.2 1.9-3.9 4.6-6.9 8-9.1 3.4-2.2 7.5-3.3 12.1-3.3s8.5 1.1 11.7 3.4 5.5 5.3 7.2 9.2c1.6 3.9 2.4 8.2 2.4 13.1s-.8 9.2-2.5 13.1c-1.6 3.9-4.1 6.9-7.3 9.2s-7.2 3.3-12.1 3.3zm2-10.8c2.7 0 4.9-.6 6.5-1.8s2.8-3 3.5-5.2c.7-2.2 1.1-4.8 1.1-7.7s-.4-5.5-1.1-7.7c-.7-2.2-1.9-3.9-3.4-5.2-1.6-1.2-3.6-1.8-6.2-1.8-2.7 0-5 .7-6.7 2-1.8 1.3-3.1 3.1-3.9 5.4-.8 2.2-1.3 4.7-1.3 7.4s.4 5.2 1.2 7.4c.8 2.2 2.1 4 3.7 5.3 1.8 1.2 4 1.9 6.6 1.9zm11.2 9.5v-33.3h-1.5v-31.5h12.3V183h-10.8zM1101.4 127.6v-10.8h12.2v10.8h-12.2zm0 55.4v-48.6h12.2V183h-12.2zM1149.7 184.3c-5 0-9.4-1.1-13.2-3.2-3.8-2.1-6.8-5.1-8.9-8.9-2.1-3.8-3.2-8.1-3.2-12.9 0-5.3 1-9.9 3.2-13.9 2.1-3.9 5-7 8.7-9.2 3.7-2.2 7.9-3.3 12.7-3.3 5.1 0 9.4 1.2 13 3.6s6.2 5.8 7.9 10.1 2.3 9.5 1.8 15.3h-12.1v-4.5c0-5-.8-8.5-2.4-10.7s-4.1-3.3-7.7-3.3c-4.2 0-7.2 1.3-9.2 3.8-2 2.5-2.9 6.3-2.9 11.2 0 4.5 1 8 2.9 10.5 2 2.5 4.9 3.7 8.7 3.7 2.4 0 4.5-.5 6.2-1.6 1.7-1.1 3-2.6 3.9-4.5l12.2 3.5c-1.8 4.4-4.7 7.9-8.7 10.3s-8.2 4-12.9 4zm-16.1-22.2V153h32.2v9.1h-32.2zM1200.8 184.3c-6.1 0-11.1-1.4-14.8-4.2-3.8-2.8-6.1-6.7-6.9-11.8l12.5-1.9c.5 2.3 1.6 4.1 3.4 5.4 1.8 1.3 4 1.9 6.7 1.9 2.2 0 3.9-.4 5.1-1.3 1.2-.9 1.8-2 1.8-3.6 0-1-.2-1.7-.7-2.3-.5-.6-1.6-1.2-3.2-1.7s-4.3-1.3-7.8-2.3c-4-1-7.1-2.2-9.5-3.4s-4.1-2.8-5.1-4.5c-1.1-1.8-1.6-3.9-1.6-6.4 0-3.1.8-5.8 2.4-8.1 1.6-2.3 3.8-4.1 6.7-5.3 2.9-1.2 6.3-1.9 10.2-1.9 3.8 0 7.2.6 10.1 1.8 2.9 1.2 5.3 2.8 7.1 5 1.8 2.2 2.9 4.7 3.4 7.7l-12.5 2.3c-.2-1.8-1-3.2-2.3-4.3-1.3-1-3.2-1.7-5.5-1.8-2.3-.2-4.1.2-5.4.9-1.4.8-2 1.8-2 3.2 0 .8.3 1.5.9 2.1.6.6 1.8 1.2 3.6 1.8 1.8.6 4.7 1.4 8.4 2.3 3.7 1 6.7 2.1 8.9 3.4 2.2 1.3 3.9 2.8 4.9 4.6s1.5 3.9 1.5 6.5c0 5-1.8 8.9-5.4 11.7-3.5 2.8-8.5 4.2-14.9 4.2z"/></g><g fill="#EE427C"><path d="M389.5 239v-33.1h20.2v6.3h-14v7.2H407v6.3h-11.2V239h-6.3zM424.4 239.7c-2.5 0-4.7-.6-6.6-1.7-1.9-1.1-3.4-2.7-4.4-4.6s-1.6-4.2-1.6-6.8c0-2.6.5-4.9 1.6-6.8 1.1-2 2.6-3.5 4.4-4.6 1.9-1.1 4.1-1.7 6.5-1.7 2.5 0 4.7.6 6.6 1.7 1.9 1.1 3.4 2.7 4.4 4.6 1.1 2 1.6 4.2 1.6 6.8 0 2.6-.5 4.8-1.6 6.8s-2.5 3.5-4.4 4.6c-1.9 1.1-4.1 1.7-6.5 1.7zm0-5.9c2 0 3.5-.7 4.5-2 1-1.4 1.5-3.1 1.5-5.2 0-2.2-.5-4-1.5-5.3-1-1.3-2.5-2-4.5-2-1.4 0-2.5.3-3.4.9s-1.5 1.5-1.9 2.6c-.4 1.1-.6 2.4-.6 3.8 0 2.2.5 4 1.5 5.3.9 1.3 2.4 1.9 4.4 1.9zM442 239v-24.8h5.5v6.1l-.6-.8c.3-.9.8-1.6 1.3-2.3.5-.7 1.2-1.3 2-1.7.6-.4 1.2-.7 2-.9s1.4-.3 2.2-.4 1.5 0 2.3.1v5.8c-.7-.2-1.5-.3-2.4-.2-.9.1-1.7.3-2.5.6-.7.3-1.4.8-1.9 1.3s-.9 1.2-1.1 2c-.3.8-.4 1.6-.4 2.6V239H442zM477.1 239.7c-1.8 0-3.3-.3-4.5-1-1.2-.7-2.2-1.6-2.8-2.7s-1-2.4-1-3.8c0-1.2.2-2.2.5-3.2.4-1 .9-1.8 1.7-2.5.8-.7 1.9-1.3 3.2-1.8.9-.3 2-.6 3.3-.9 1.3-.3 2.7-.5 4.3-.7 1.6-.2 3.4-.5 5.3-.8l-2.3 1.2c0-1.5-.4-2.6-1.1-3.2s-1.9-1-3.5-1c-.9 0-1.9.2-2.9.7-1 .4-1.7 1.2-2.1 2.4l-5.7-1.8c.6-2.1 1.8-3.7 3.5-5 1.7-1.3 4.1-1.9 7.1-1.9 2.2 0 4.1.3 5.8 1 1.7.7 3 1.8 3.9 3.5.5.9.8 1.8.9 2.8.1.9.1 1.9.1 3.1V239h-5.5v-5.1l.8 1.1c-1.2 1.7-2.5 2.9-3.9 3.6-1.2.7-3 1.1-5.1 1.1zm1.3-4.9c1.1 0 2.1-.2 2.9-.6s1.4-.9 1.9-1.4.8-1 1-1.3c.3-.7.5-1.5.6-2.4.1-.9.1-1.6.1-2.2l1.8.5c-1.9.3-3.4.6-4.5.8-1.2.2-2.1.4-2.8.6-.7.2-1.3.4-1.9.6-.6.2-1.1.5-1.5.8-.4.3-.7.6-.8.9-.2.3-.3.7-.3 1.1 0 .6.1 1.1.4 1.5s.7.7 1.2.9c.6.1 1.2.2 1.9.2zM497.5 239v-33.8h6.3V239h-6.3zM511.1 239v-33.8h6.3V239h-6.3zM536.6 250l4.8-13.2.1 3.9-10.8-26.6h6.5l7.3 18.8H543l7.2-18.8h6.3l-14 35.9h-5.9zM569.9 239.7c-2.5 0-4.7-.6-6.6-1.7-1.9-1.1-3.4-2.7-4.4-4.6s-1.6-4.2-1.6-6.8c0-2.6.5-4.9 1.6-6.8 1.1-2 2.6-3.5 4.4-4.6 1.9-1.1 4.1-1.7 6.5-1.7 2.5 0 4.7.6 6.6 1.7 1.9 1.1 3.4 2.7 4.4 4.6 1.1 2 1.6 4.2 1.6 6.8 0 2.6-.5 4.8-1.6 6.8s-2.5 3.5-4.4 4.6c-1.8 1.1-4 1.7-6.5 1.7zm0-5.9c2 0 3.5-.7 4.5-2 1-1.4 1.5-3.1 1.5-5.2 0-2.2-.5-4-1.5-5.3-1-1.3-2.5-2-4.5-2-1.4 0-2.5.3-3.4.9s-1.5 1.5-1.9 2.6c-.4 1.1-.6 2.4-.6 3.8 0 2.2.5 4 1.5 5.3 1 1.3 2.5 1.9 4.4 1.9zM596.8 239.7c-1.9 0-3.5-.3-4.8-1-1.2-.7-2.2-1.5-2.9-2.5s-1.2-2.1-1.5-3.2c-.3-1.1-.5-2.1-.5-3-.1-.9-.1-1.6-.1-2v-13.9h6.3v11.7c0 .6 0 1.3.1 2.2.1.9.3 1.8.6 2.7.3.9.8 1.6 1.6 2.2.7.6 1.8.9 3.1.9.5 0 1.1-.1 1.7-.3.6-.2 1.2-.5 1.7-1s1-1.2 1.3-2.1c.3-.9.5-2.2.5-3.7l3.6 1.7c0 2-.4 3.8-1.2 5.5-.8 1.7-2 3.1-3.6 4.2-1.4 1.1-3.4 1.6-5.9 1.6zm8.1-.7v-8.2h-.8v-16.6h6.3V239h-5.5zM616.8 239v-24.8h5.5v6.1l-.6-.8c.3-.9.8-1.6 1.3-2.3.5-.7 1.2-1.3 2-1.7.6-.4 1.2-.7 2-.9s1.4-.3 2.2-.4 1.5 0 2.3.1v5.8c-.7-.2-1.5-.3-2.4-.2-.9.1-1.7.3-2.5.6-.7.3-1.4.8-1.9 1.3s-.9 1.2-1.1 2c-.3.8-.4 1.6-.4 2.6V239h-6.4zM642.2 219v-4.8h17.7v4.8h-17.7zm17.7 20c-1.7.3-3.4.5-5 .4-1.6 0-3.1-.3-4.4-.9-1.3-.5-2.3-1.4-3-2.6-.6-1.1-.9-2.3-1-3.5v-25.2h6.3V230.6c0 .8.2 1.4.5 1.9.6.9 1.4 1.3 2.6 1.4 1.2.1 2.6 0 4-.2v5.3zM675.6 239.7c-2.5 0-4.8-.5-6.7-1.6-1.9-1.1-3.5-2.6-4.6-4.5-1.1-1.9-1.6-4.1-1.6-6.6 0-2.7.5-5.1 1.6-7.1s2.6-3.6 4.4-4.7 4.1-1.7 6.5-1.7c2.6 0 4.8.6 6.6 1.8 1.8 1.2 3.2 3 4 5.2.9 2.2 1.2 4.8.9 7.8h-6.2V226c0-2.5-.4-4.3-1.2-5.5-.8-1.1-2.1-1.7-3.9-1.7-2.1 0-3.7.6-4.7 1.9-1 1.3-1.5 3.2-1.5 5.7 0 2.3.5 4.1 1.5 5.4 1 1.3 2.5 1.9 4.4 1.9 1.2 0 2.3-.3 3.2-.8s1.5-1.3 2-2.3l6.3 1.8c-.9 2.3-2.4 4-4.4 5.3-2 1.4-4.2 2-6.6 2zm-8.3-11.4v-4.6h16.5v4.6h-16.5zM702.9 239.7c-2.6 0-4.8-.6-6.6-1.7s-3.3-2.7-4.2-4.7c-1-2-1.5-4.2-1.5-6.7s.5-4.8 1.5-6.7c1-2 2.5-3.5 4.3-4.7 1.9-1.1 4-1.7 6.6-1.7 2.9 0 5.4.7 7.4 2.2 2 1.5 3.3 3.5 3.8 6.1l-6.3 1.7c-.4-1.3-1-2.3-1.9-3s-1.9-1.1-3.1-1.1c-1.3 0-2.4.3-3.2 1-.8.6-1.5 1.5-1.9 2.6-.4 1.1-.6 2.3-.6 3.7 0 2.2.5 3.9 1.4 5.3s2.4 2 4.3 2c1.4 0 2.5-.3 3.2-1 .7-.6 1.3-1.6 1.7-2.8l6.4 1.3c-.7 2.6-2 4.7-4 6.1-2 1.4-4.4 2.1-7.3 2.1zM718.8 239v-33.1h5.6v17h.8V239h-6.4zm16.9 0v-11.7c0-.6 0-1.3-.1-2.2s-.3-1.8-.6-2.7c-.3-.9-.8-1.6-1.6-2.2s-1.8-.9-3.1-.9c-.5 0-1.1.1-1.7.3-.6.2-1.2.5-1.7 1s-1 1.2-1.3 2.1-.5 2.2-.5 3.7l-3.6-1.7c0-2 .4-3.8 1.2-5.5.8-1.7 2-3.1 3.6-4.2s3.6-1.6 6.1-1.6c1.9 0 3.5.3 4.8 1s2.2 1.5 2.9 2.5 1.2 2.1 1.5 3.2c.3 1.1.5 2.1.5 3 .1.9.1 1.6.1 2V239h-6.5zM748 239v-24.8h5.6v8.2h.8V239H748zm17 0v-11.7c0-.6 0-1.3-.1-2.2-.1-.9-.3-1.8-.6-2.7-.3-.9-.8-1.6-1.6-2.2-.7-.6-1.8-.9-3.1-.9-.5 0-1.1.1-1.7.3-.6.2-1.2.5-1.7 1s-1 1.2-1.3 2.1c-.3.9-.5 2.2-.5 3.7l-3.6-1.7c0-2 .4-3.8 1.2-5.5.8-1.7 2-3.1 3.6-4.2s3.6-1.6 6.1-1.6c1.9 0 3.5.3 4.8 1s2.2 1.5 2.9 2.5c.7 1 1.2 2.1 1.5 3.2.3 1.1.5 2.1.5 3s.1 1.6.1 2V239H765zM777.8 210.7v-5.5h6.3v5.5h-6.3zm0 28.3v-24.8h6.3V239h-6.3zM801.9 239.7c-2.6 0-4.8-.6-6.6-1.7s-3.3-2.7-4.2-4.7c-1-2-1.5-4.2-1.5-6.7s.5-4.8 1.5-6.7 2.5-3.5 4.3-4.7 4-1.7 6.6-1.7c2.9 0 5.4.7 7.4 2.2 2 1.5 3.3 3.5 3.8 6.1l-6.3 1.7c-.4-1.3-1-2.3-1.9-3-.9-.7-1.9-1.1-3.1-1.1-1.3 0-2.4.3-3.2 1-.8.6-1.5 1.5-1.9 2.6-.4 1.1-.6 2.3-.6 3.7 0 2.2.5 3.9 1.4 5.3 1 1.3 2.4 2 4.3 2 1.4 0 2.5-.3 3.2-1s1.3-1.6 1.7-2.8l6.4 1.3c-.7 2.6-2 4.7-4 6.1s-4.4 2.1-7.3 2.1zM824.2 239.7c-1.8 0-3.3-.3-4.5-1-1.2-.7-2.2-1.6-2.8-2.7-.6-1.1-1-2.4-1-3.8 0-1.2.2-2.2.5-3.2s.9-1.8 1.7-2.5c.8-.7 1.9-1.3 3.2-1.8.9-.3 2-.6 3.3-.9 1.3-.3 2.7-.5 4.3-.7 1.6-.2 3.4-.5 5.3-.8l-2.3 1.2c0-1.5-.4-2.6-1.1-3.2s-1.9-1-3.5-1c-.9 0-1.9.2-2.9.7-1 .4-1.7 1.2-2.1 2.4l-5.7-1.8c.6-2.1 1.8-3.7 3.5-5 1.7-1.3 4.1-1.9 7.1-1.9 2.2 0 4.1.3 5.8 1 1.7.7 3 1.8 3.9 3.5.5.9.8 1.8.9 2.8.1.9.1 1.9.1 3.1V239h-5.5v-5.1l.8 1.1c-1.2 1.7-2.5 2.9-3.9 3.6-1.2.7-3 1.1-5.1 1.1zm1.3-4.9c1.2 0 2.1-.2 2.9-.6.8-.4 1.4-.9 1.9-1.4s.8-1 1-1.3c.3-.7.5-1.5.6-2.4s.1-1.6.1-2.2l1.8.5c-1.9.3-3.4.6-4.5.8-1.2.2-2.1.4-2.8.6-.7.2-1.3.4-1.9.6-.6.2-1.1.5-1.5.8-.4.3-.7.6-.8.9-.2.3-.3.7-.3 1.1 0 .6.1 1.1.4 1.5.3.4.7.7 1.2.9.6.1 1.2.2 1.9.2zM844.6 239v-33.8h6.3V239h-6.3zM864.2 219v-4.8h17.7v4.8h-17.7zm17.6 20c-1.7.3-3.4.5-5 .4-1.6 0-3.1-.3-4.4-.9-1.3-.5-2.3-1.4-3-2.6-.6-1.1-.9-2.3-1-3.5v-25.2h6.3V230.6c0 .8.2 1.4.5 1.9.6.9 1.4 1.3 2.6 1.4s2.6 0 4-.2v5.3zM887.3 239v-24.8h5.5v6.1l-.6-.8c.3-.9.8-1.6 1.3-2.3.5-.7 1.2-1.3 2-1.7.6-.4 1.3-.7 2-.9s1.4-.3 2.2-.4c.8-.1 1.5 0 2.3.1v5.8c-.7-.2-1.5-.3-2.4-.2-.9.1-1.7.3-2.5.6-.7.3-1.4.8-1.9 1.3s-.9 1.2-1.2 2-.4 1.6-.4 2.6V239h-6.3zM912.7 239.7c-1.8 0-3.3-.3-4.5-1-1.2-.7-2.2-1.6-2.8-2.7-.6-1.1-1-2.4-1-3.8 0-1.2.2-2.2.5-3.2.4-1 .9-1.8 1.7-2.5s1.9-1.3 3.2-1.8c.9-.3 2-.6 3.3-.9s2.7-.5 4.3-.7c1.6-.2 3.4-.5 5.3-.8l-2.3 1.2c0-1.5-.4-2.6-1.1-3.2s-1.9-1-3.5-1c-.9 0-1.9.2-2.9.7-1 .4-1.7 1.2-2.1 2.4l-5.7-1.8c.6-2.1 1.8-3.7 3.5-5 1.7-1.3 4.1-1.9 7.1-1.9 2.2 0 4.1.3 5.8 1 1.7.7 3 1.8 3.9 3.5.5.9.8 1.8.9 2.8s.1 1.9.1 3.1V239h-5.5v-5.1l.8 1.1c-1.2 1.7-2.5 2.9-3.9 3.6-1.1.7-2.9 1.1-5.1 1.1zm1.4-4.9c1.1 0 2.1-.2 2.9-.6.8-.4 1.4-.9 1.9-1.4s.8-1 1-1.3c.3-.7.5-1.5.6-2.4.1-.9.1-1.6.1-2.2l1.8.5c-1.9.3-3.4.6-4.5.8s-2.1.4-2.8.6c-.7.2-1.3.4-1.9.6-.6.2-1.1.5-1.5.8-.4.3-.7.6-.8.9-.2.3-.3.7-.3 1.1 0 .6.1 1.1.4 1.5.3.4.7.7 1.2.9.5.1 1.2.2 1.9.2zM933.1 210.7v-5.5h6.3v5.5h-6.3zm0 28.3v-24.8h6.3V239h-6.3zM946.2 239v-24.8h5.6v8.2h.8V239h-6.4zm17 0v-11.7c0-.6 0-1.3-.1-2.2-.1-.9-.3-1.8-.6-2.7-.3-.9-.8-1.6-1.6-2.2-.7-.6-1.8-.9-3.1-.9-.5 0-1.1.1-1.7.3-.6.2-1.2.5-1.7 1s-1 1.2-1.3 2.1c-.3.9-.5 2.2-.5 3.7l-3.6-1.7c0-2 .4-3.8 1.2-5.5.8-1.7 2-3.1 3.6-4.2s3.6-1.6 6.1-1.6c1.9 0 3.5.3 4.8 1s2.2 1.5 2.9 2.5c.7 1 1.2 2.1 1.5 3.2.3 1.1.5 2.1.5 3s.1 1.6.1 2V239h-6.5zM976 210.7v-5.5h6.3v5.5H976zm0 28.3v-24.8h6.3V239H976zM989.1 239v-24.8h5.6v8.2h.8V239h-6.4zm17 0v-11.7c0-.6 0-1.3-.1-2.2s-.3-1.8-.6-2.7c-.3-.9-.8-1.6-1.6-2.2s-1.8-.9-3.1-.9c-.5 0-1.1.1-1.7.3-.6.2-1.2.5-1.7 1s-1 1.2-1.3 2.1-.5 2.2-.5 3.7l-3.6-1.7c0-2 .4-3.8 1.2-5.5.8-1.7 2-3.1 3.6-4.2s3.6-1.6 6.1-1.6c1.9 0 3.5.3 4.8 1s2.2 1.5 2.9 2.5 1.2 2.1 1.5 3.2c.3 1.1.5 2.1.5 3 .1.9.1 1.6.1 2V239h-6.5zM1028.5 239.7c-2.3 0-4.3-.6-6-1.7-1.7-1.2-3.1-2.7-4-4.7-1-2-1.4-4.2-1.4-6.7s.5-4.8 1.5-6.8 2.3-3.5 4.1-4.7c1.8-1.1 3.8-1.7 6.2-1.7 2.4 0 4.3.6 6 1.7 1.6 1.2 2.8 2.7 3.7 4.7.8 2 1.2 4.2 1.2 6.7s-.4 4.7-1.3 6.7c-.8 2-2.1 3.5-3.7 4.7-1.8 1.2-3.9 1.8-6.3 1.8zm.5 11c-1.4 0-2.8-.2-4-.7-1.3-.5-2.4-1.1-3.4-1.9-1-.8-1.8-1.7-2.4-2.8l5.8-2.8c.4.7 1 1.3 1.7 1.7.7.4 1.6.6 2.4.6.9 0 1.8-.2 2.6-.5s1.5-.8 2-1.4c.5-.6.7-1.4.7-2.3v-7.2h.8v-19.2h5.5v26.5c0 .6 0 1.2-.1 1.7s-.1 1.1-.3 1.6c-.4 1.5-1.1 2.8-2.2 3.7-1.1 1-2.4 1.7-4 2.2-1.6.6-3.3.8-5.1.8zm.5-16.6c1.4 0 2.5-.3 3.3-.9s1.4-1.5 1.8-2.6.6-2.5.6-4-.2-2.8-.6-4-1-2-1.8-2.6c-.8-.6-1.9-.9-3.2-.9-1.4 0-2.5.3-3.4 1-.9.7-1.6 1.6-2 2.7-.4 1.1-.6 2.4-.6 3.8s.2 2.7.6 3.8 1 2.1 1.9 2.7c.9.7 2 1 3.4 1zM1056.3 239v-24.8h5.6v8.2h.8V239h-6.4zm16.9 0v-11.7c0-.6 0-1.3-.1-2.2s-.3-1.8-.6-2.7c-.3-.9-.8-1.6-1.6-2.2s-1.8-.9-3.1-.9c-.5 0-1.1.1-1.7.3-.6.2-1.2.5-1.7 1s-1 1.2-1.3 2.1c-.3.9-.5 2.2-.5 3.7l-3.6-1.7c0-2 .4-3.8 1.2-5.5.8-1.7 2-3.1 3.6-4.2s3.6-1.6 6.1-1.6c1.9 0 3.5.3 4.8 1s2.2 1.5 2.9 2.5c.7 1 1.2 2.1 1.5 3.2.3 1.1.5 2.1.5 3 .1.9.1 1.6.1 2V239h-6.5zM1096.6 239.7c-2.5 0-4.8-.5-6.7-1.6-1.9-1.1-3.5-2.6-4.6-4.5s-1.6-4.1-1.6-6.6c0-2.7.5-5.1 1.6-7.1s2.6-3.6 4.4-4.7c1.9-1.1 4.1-1.7 6.5-1.7 2.6 0 4.8.6 6.6 1.8 1.8 1.2 3.2 3 4 5.2.9 2.2 1.2 4.8.9 7.8h-6.2V226c0-2.5-.4-4.3-1.2-5.5-.8-1.1-2.1-1.7-3.9-1.7-2.1 0-3.7.6-4.7 1.9-1 1.3-1.5 3.2-1.5 5.7 0 2.3.5 4.1 1.5 5.4 1 1.3 2.5 1.9 4.4 1.9 1.2 0 2.3-.3 3.2-.8s1.5-1.3 2-2.3l6.3 1.8c-.9 2.3-2.4 4-4.4 5.3-2 1.4-4.2 2-6.6 2zm-8.2-11.4v-4.6h16.5v4.6h-16.5zM1124.6 239.7c-2.5 0-4.8-.5-6.7-1.6-1.9-1.1-3.5-2.6-4.6-4.5s-1.6-4.1-1.6-6.6c0-2.7.5-5.1 1.6-7.1s2.6-3.6 4.4-4.7c1.9-1.1 4.1-1.7 6.5-1.7 2.6 0 4.8.6 6.6 1.8 1.8 1.2 3.2 3 4 5.2.9 2.2 1.2 4.8.9 7.8h-6.2V226c0-2.5-.4-4.3-1.2-5.5-.8-1.1-2.1-1.7-3.9-1.7-2.1 0-3.7.6-4.7 1.9-1 1.3-1.5 3.2-1.5 5.7 0 2.3.5 4.1 1.5 5.4 1 1.3 2.5 1.9 4.4 1.9 1.2 0 2.3-.3 3.2-.8s1.5-1.3 2-2.3l6.3 1.8c-.9 2.3-2.4 4-4.4 5.3-2 1.4-4.2 2-6.6 2zm-8.2-11.4v-4.6h16.5v4.6h-16.5zM1151.1 239.7c-2.3 0-4.3-.6-6-1.7-1.7-1.2-3.1-2.7-4-4.7-1-2-1.4-4.2-1.4-6.7s.5-4.8 1.5-6.8 2.3-3.5 4.1-4.7c1.8-1.1 3.8-1.7 6.2-1.7 2.4 0 4.3.6 6 1.7 1.6 1.2 2.8 2.7 3.7 4.7.8 2 1.2 4.2 1.2 6.7s-.4 4.7-1.3 6.7c-.8 2-2.1 3.5-3.7 4.7-1.8 1.2-3.8 1.8-6.3 1.8zm1-5.6c1.4 0 2.5-.3 3.3-.9s1.4-1.5 1.8-2.6.6-2.5.6-4-.2-2.8-.6-4-1-2-1.8-2.6c-.8-.6-1.9-.9-3.2-.9-1.4 0-2.5.3-3.4 1-.9.7-1.6 1.6-2 2.7-.4 1.1-.6 2.4-.6 3.8s.2 2.7.6 3.8 1 2.1 1.9 2.7c1 .7 2.1 1 3.4 1zm5.7 4.9v-17h-.8v-16.1h6.3V239h-5.5zM1179.5 239.7c-3.1 0-5.7-.7-7.6-2.1-1.9-1.4-3.1-3.4-3.5-6l6.4-1c.3 1.2.8 2.1 1.7 2.7.9.7 2 1 3.4 1 1.1 0 2-.2 2.6-.7s.9-1 .9-1.8c0-.5-.1-.9-.4-1.2-.2-.3-.8-.6-1.6-.9-.9-.3-2.2-.7-4-1.2-2-.5-3.6-1.1-4.9-1.7-1.2-.6-2.1-1.4-2.6-2.3-.5-.9-.8-2-.8-3.3 0-1.6.4-3 1.2-4.2.8-1.2 2-2.1 3.4-2.7 1.5-.6 3.2-1 5.2-1 1.9 0 3.7.3 5.2.9 1.5.6 2.7 1.4 3.6 2.6.9 1.1 1.5 2.4 1.7 3.9l-6.4 1.2c-.1-.9-.5-1.6-1.2-2.2s-1.6-.9-2.8-.9c-1.2-.1-2.1.1-2.8.5-.7.4-1 .9-1 1.7 0 .4.1.8.4 1.1.3.3.9.6 1.9.9.9.3 2.4.7 4.3 1.2s3.4 1.1 4.5 1.7c1.1.7 2 1.4 2.5 2.3s.8 2 .8 3.3c0 2.5-.9 4.5-2.8 6-1.5 1.5-4.1 2.2-7.3 2.2z"/></g><g fill="#FFF"><path d="M87 170.2c0 1.1 0 1.6 1 2.1.8.4 1.4.7 1.4 1.6 0 3-6.4 2.9-8.4 2.9-1.9 0-7.9.2-7.9-2.9 0-.9.4-1.3 1.3-1.6 1.3-.5 1.3-.6 2-2.1 1.1-2.7 2.7-14.3 2.2-17.7-.1-.7-.5-.8-1.1-.9-1.1-.3-1.7-.4-1.7-1.7 0-2.4 2.4-2.8 4.3-2.9h13.8c4.8-.1 8.7 1.5 9.1 6.5.4 5.4-4.3 6.3-4.3 7.4 0 .6.4.8.8 1.1.9.6 1.5 1 1.8 2.1.8 2.3.4 5.3 1 7.2.2.7.5.9 1.1 1.1.7.3 1.6.5 1.6 1.4 0 2.4-4.2 3.1-6 3.1-8.9 0-6.6-7.1-8.1-11.7-.3-1-1.3-1.3-2.3-1.3-1.1 0-1.2.1-1.3 1.2l-.3 5.1zm1.2-12.2c-.1.9-.2 1.5 1 1.5 2.5 0 2.9-3.6 2.9-5.5 0-1.6-.4-2.8-2.2-2.8-1.2 0-1.1 1.1-1.2 2.1l-.5 4.7zM124 170.9c-2.5 4.8-3.7 6-6 6-3.4 0-3.8-2.6-5.8-9.6l-3.7-13.3c-.7-2.6-3.2-1.3-3.2-3.7 0-1-.4-3.5 9.4-3.5 6.1 0 6.6 1.3 6.6 2.9 0 2.2-2.9 1.3-2.5 3.3.6 3.6 2.1 10.6 3 10.6 1.1 0 4.7-9.6 4.7-11.1s-1.9-1.4-1.9-3.2c0-2.5 4.7-2.5 6.4-2.5 4.7 0 5.6 1.2 5.6 2.4 0 2.9-2.6 1.5-3.5 3.5l-9.1 18.2zM138.8 164.6c.2-1 .4-1.8.4-2.3s-.2-.8-.9-.8c-.6 0-1.6 0-1.6-1.5 0-1.8 1.9-2.6 3.3-3.2 2-.8 5.2-1.8 7.3-1.8 1.3 0 1.9.7 1.9 1.9 0 1.8-.6 5.4-.7 6-.1.5-.8 5.3-1 6.9-.1.8.5.8 1.1.8.8 0 1.4 0 1.4 1 0 3.2-6.6 5.1-9 5.1-1.6 0-3.4-1-3.4-2.7 0-.8.1-1.6.3-2.4l.9-7zm-.2-13.7c0-3.4 6-5.1 8.7-5.1 1.5 0 3.5.6 3.5 2.4 0 3.1-5.9 5.2-8.4 5-1.5 0-3.8-.4-3.8-2.3zM155.2 176.5c-3.8 0-4.7-1.1-4.7-2.6 0-2.4 2.6-1.6 3-2.9 1.4-4.7 2.5-12.7 2.5-17.7 0-2.4-2.8-1.2-2.8-3.5s2.4-2.9 4.3-2.8c4.2.2 8.5.1 12.8 0 5.1-.1 8.4 2.2 8.4 6.8 0 4.2-4.1 6-4.1 6.7 0 1.2 4.6 1 4.6 7.2 0 3.1-2 8.9-10.5 8.9h-13.5zm8.6-5.2c0 .8.6.8 1.3.8 3 0 3.3-3.2 3.3-5.4s-.6-3.2-2.9-3.2c-1.5 0-1.2.2-1.3 1.7l-.4 6.1zm1.1-14c-.1 1-.3 1.7.9 1.7 2.7 0 3.1-3.3 3.1-5.3 0-1.7-.5-2.6-2.2-2.6-1.3 0-1.1.2-1.3 1.5l-.5 4.7zM180.3 168.2c0-2.1 1-3.9 3.3-3.9 2.1 0 2.8 2 3.4 3.6.8 1.9 2 4 4.3 4 1.4 0 2.8-.8 2.8-2.4 0-3.7-10-5.3-10-13.3 0-6.3 5.6-9.7 11.4-9.7 2.1 0 3.7.7 4.2.7s1.3-.7 2.5-.7c2.5 0 4.5 3.8 4.5 6 0 1.8-1.3 3.6-3.3 3.6-3.1 0-3.9-4.4-6.8-4.4-1.1 0-2 .6-2 1.8 0 1.6 1.4 2.4 2.6 3 4.3 2.4 8.4 4.4 8.4 10 0 7.4-7.6 10.7-13.9 10.7-5.4-.1-11.4-2.7-11.4-9z"/></g><path fill="#FCFCFC" d="m-333.6 284.6-16.9 12.1M-160.4 284.6l16.9 12.1"/><path fill="#006BBB" d="M60.7 224h-29l-21-20h50z"/><linearGradient id="b" gradientUnits="userSpaceOnUse" x1="35.667" y1="244" x2="35.667" y2="224"><stop offset="0" style="stop-color:#182d3e"/><stop offset="1" style="stop-color:#016bb7"/></linearGradient><path fill="url(#b)" d="M60.7 224h-29l-21 20h50z"/><path fill="#F9F9F9" d="M50 212.8h10.7V204L50 212.8z"/><path fill="#006BBB" d="M227.2 224h29l21-20h-50z"/><linearGradient id="c" gradientUnits="userSpaceOnUse" x1="227.167" y1="234" x2="277.167" y2="234"><stop offset="0" style="stop-color:#182d3e"/><stop offset="1" style="stop-color:#016bb7"/></linearGradient><path fill="url(#c)" d="M227.2 224h29l21 20h-50z"/><path fill="#F9F9F9" d="M237.8 212.8h-10.6V204l10.6 8.8z"/><g fill="#FFF"><path d="M118 53.1c4.7 2.8 9 6.1 12.9 9.5 4 3.4 5.8 7.4 4.5 11.8-.3.9-1 1.9-2 2.5-4.4 2.7-7.7 10.5-5.1 13.1 1.3-.6 2.5-1.3 3.9-1.8 3.6-1.4 7.3-2.6 10.9-4 1.8-.7 3.7-1.2 5.2-2.1 4.2-2.4 8.5-2.4 13.3-1 4.3 1.3 5.8.8 7.7-2.2 2.1-3.4 1.7-6.9 1-10.4-.3-1.5-.3-3.2.5-4.5 1.7-2.8 3.7-5.6 6.3-8 6.8-6.3 14.3-12.3 21.1-18.6 7.1-6.6 13.8-13.4 20.6-20.1 1-1 1.5-2.3 2.3-3.5 3.7 2 4.8 4.7 2.7 8.1-2.6 4-5.7 7.9-8.6 11.9-.4.6-.8 1.1-1.3 1.7.3.1.5.2.8.3 4.1-4.6 8.2-9.1 12.3-13.6 2.6 1.7 3.2 4.4 1.3 7.5-1.8 2.8-3.6 5.5-4.8 8.5 2.2-2.7 4.4-5.5 6.7-8.4.7 1.1 1.2 2 1.8 2.9V37c-4.9 7.3-8.9 10.9-25.4 23.1 7.3-3.8 13.9-8 19-13.3.2.1.5.1.7.2-.3 1.4-.2 3-1 4.2-1.8 2.7-3.6 5.5-6.4 7.7-5.1 3.9-11 7.4-16.5 11.2 4.5-2.1 9-4.3 14-6.6-4.2 7.7-12.5 12.4-22.1 16.5l2.1-.3c.8-.1 1.5-.3 2.3-.5.9 2.9-.9 4.5-8.4 7 2.2-.2 3.8-.4 5.3-.5.5 2.5-1.6 4.1-8.2 5.8h4.4c-1.3 2.7-3.9 4-8.3 4.4 1.3.2 2 .4 2.9.6-2 3.1-5.6 3.7-10 3.6.6.2 1.3.4 2.1.7-3.3 3.1-7.6 2.8-12.2 2.1.9.6 1.9 1.2 2.8 1.7-2.4 1.4-6.1 1.7-11.3 1.1.2.4.4.7.8 1.4-3.5.1-6.8.2-10.5.3.3 1.3.5 2.8 1.1 4.2 1.2 2.6 2.5 5.1 3.9 7.6.6 1.1 1.8 1.6 3.5.9l1.2-.3c2.2-.4 4.3-.9 6.1.6 1.7 1.5 1.6 2.5-.5 4.4-.5-.9-.8-1.9-1.7-2.7-.3-.3-1.8.1-2.7.1 1.2.7 2.7 1.2 2.9 1.9.2.6-.9 1.5-1.6 2.4-2.1-2.2-9.3-2.8-11.4-1.5.5 1.5 1.1 2.7 1.3 4 .1.4-.9.9-1.4 1.3-.6-.3-1.3-.6-1.8-1-.6-.4-1.2-.9-1.7-1.2-1.1 1.6-1.9 2.9-2.9 4.2-.2.3-1.2.3-1.8.4-.1-.4-.3-.7-.4-1.1-.2-.7-.4-1.4-.6-2.2-2 .7-2.6 1.4-1.7 2.5.4.5.7 1.1 1 1.6h-1.6c-3.7-2.2-3.8-3.1-1.6-6 .6-.8.4-1.8.6-2.8-.4-.1-.7-.1-1.1-.2-1.2 1.1-2.4 2.3-3.7 3.5-.3-.4-.6-.7-.9-1-.1 0-.3.1-.4.1-5.5 4.1-12.6 5.3-20.4 5.2-1.5 0-3-1.1-4.6-1.6-.6-.2-1.3-.2-1.9-.4-2.1-.4-5.1-.3-6.2-1.2-2.4-1.9-5.8-2.1-8.4-3.4-.7-.4-1.3-1-1.9-1.4-.5-.4-1-.9-1.7-1.2-2.6-1.4-6.3-2-6.6-4.9-.1-.6-1.8-1.1-2.6-1.7-1.6-1.2-3.2-2.5-4.8-3.7l.3-.6c1.9-.2 3.7-.4 5.6-.5 6.3-.4 12.7-.7 19-1.2.8-.1 1.7-.3 2.4-.7 3.5-1.6 6.9-3.3 10.8-5.1-4.4 0-7.7-1.1-10.4-3.3.9-.3 1.7-.5 2.8-.7-4.5-.3-7.9-1.5-9.8-4.3.7-.2 1.3-.4 2.3-.6-3.9-1.1-6.2-3-7-5.8 1 .1 1.8.1 3.3.2-4-1.5-6.6-3.3-7-6.5 2.2.5 4.2.9 6.1 1.4-4.6-2-8.5-4.2-7.9-8.4 4.7 1.6 9.2 3.2 13.7 4.7.1-.1.2-.3.4-.4-2.9-1.2-5.9-2.4-8.6-3.7-3.1-1.6-6-3.3-8.7-5.2-2.5-1.8-3.3-4.2-3-7.1 5 2.8 9.6 5.4 14.3 7.9-7.3-6.2-17.3-11.2-18.2-20 7.1 5.3 13.8 10.8 22.4 15-12-9.8-26-18.7-31.9-31.3v-5.4c.9.7 1.9 1.4 2.8 2.2.8.7 1.4 1.5 2.3 2.2C64.4 31 62 26.5 64.6 21c8.2 9.7 16.1 18.9 26.5 27.1-.4-.4-.8-.8-1.1-1.2-5.7-5.9-11.8-11.6-17-17.7-2.7-3.1-4.2-6.8-5.8-10.3-.9-1.9-.2-3.8 1.9-5.3h.5C83.9 27.4 98.5 41.5 118 53.1zm13.3 40.7c.5-.1 1.3-.1 2.4-.3-.3.8-.5 1.4-.9 2.2.9-.1 1.6-.1 2.7-.3-.8 1.3-1.4 2.4-2.3 3.9 1.8-.6 3.2-1.1 5.1-1.8-.4 1.2-.7 2-1.1 3.2 1.6-.5 2.9-.9 4.7-1.5-.6 1.4-1.1 2.4-1.8 3.8 2-.7 3.6-1.3 5.6-2-.5 1.5-.8 2.7-1.3 4 1.3-.5 2.3-.9 3.5-1.4.4.6.7 1.1 1.2 1.8 1.7-3.3 3.1-6.4 4.8-9.5 2.6-4.8 2.9-4.8 8.6-1.4 1 .6 2.1 1.2 3.4 2-.8-3-3.7-4.6-7.4-6 4.6 0 11.7 2.9 13.2 5.5 1-.9 1.9-1.6 2.6-2.4 1.1-1.2 1-2.2-.7-3.2s-3.6-2-3.3-3.8c0-.3-.7-.8-1.2-1.1-1.9-.9-3.8-1.7-5.8-2.6-4.1-1.7-8-2.2-12.5-.1-4.5 2.2-9.7 3.7-14.5 5.5-2.1.8-4 1.9-5.7 2.7.4 1.4.5 2 .7 2.8zm-32.9 17.7c-7 .5-13.9 1.2-20.9 1.9-.1.3-.2.5-.3.8 1.1.5 2.1 1.4 3.3 1.5 2.7.2 5.5.2 8.1-.1 5-.7 9.8-1.7 14.7-2.6v-.6c-1.6-.3-3.3-1-4.9-.9zm7.2 5.9c-4.7 1.9-9.4 3.7-14.1 5.6 3.4 2.3 5.4 2.5 9 .7 3.8-1.9 7.3-4 11-6.1-2.2-1.2-4-1-5.9-.2zm-13.8 3c5.2-1.6 10.2-3.4 15.3-5.1-.1-.2-.1-.4-.2-.7-1.3 0-2.7-.2-3.8 0-6.5 1.3-13 2.6-19.9 4 2.6 2.2 5.4 2.8 8.6 1.8zm18.8 4.6c1.5-1.7 2.9-3.5 4.5-5.4-2.3-.4-4-.2-5.6.9-2.9 2.1-6.1 3.9-9.2 5.9 5.2 2 7.6 1.7 10.3-1.4zm13.1 2.5c-.2-.1-.5-.1-.7-.2-.1-1-.2-2-.3-2.7-3.3 1.4-6.8 2.9-10.3 4.4.1.2.1.3.2.5 1 .1 2 .5 2.8.4 3-.4 6-.8 8.9-1.4 2.3-.5 2.5-1.1 2.2-3.6-1.2 1.1-2 1.8-2.8 2.6zm26.3-7.4c-2.6.9-4.9 1.8-7.2 2.7-1.2-1-2.4-2-3.7-3.1-1.7.4-1.7.4-1 1.6 1.8 3 2.5 3.4 8 3.4-.2-2.1 4.5-2.2 3.9-4.6zm-32.4 2.5c-.1-.6-.2-1.1-.5-2.2-2 2.7-3.7 4.9-5.4 7.2 2.2-.7 4.5-1.2 6.3-2.2 1-.5 1.3-1.8 2.1-3-1.4.1-1.9.1-2.5.2zM108 69.7c.4-.5-.3-1.5-.6-2.3-3.3 4.2-3.3 8.4-1.9 12.7-.3-3.6-.2-7.1 2.5-10.4zm2.2 17.3c-.4.1-.8.1-1.2.2.7 2.1 1.5 4.1 2.2 6.2.2 0 .4-.1.7-.1-.5-2.2-1.1-4.3-1.7-6.3z"/><path d="M160.9 85.2c1.2 1 2.5 2 3.9 3.2-1.1.5-1.9.9-2.8 1.2 2 .8 4.8.5 5.9-.6.3-.3.2-1.1-.1-1.3-2.1-1-4.4-1.9-6.6-2.8l-.3.3z"/></g><linearGradient id="d" gradientUnits="userSpaceOnUse" x1="144" y1="252.768" x2="144" y2="212.768"><stop offset="0" style="stop-color:#182d3e"/><stop offset="1" style="stop-color:#016bb7"/></linearGradient><path fill="url(#d)" d="M50 212.8h188v40H50z"/><g fill="#FFF"><path d="M61.8 233.3c-.3 2.5-.7 4.9-3.8 4.9-1.8 0-3.4-.7-3.4-3 0-1.6.5-3.4.4-4.9 0-1-.7-.3-.7-1.1 0-.1-.3-1.1 2.6-1.1 1.8 0 1.8.6 1.8 1 0 1-.9.2-1 1.8-.3 3.3-.3 2.4-.4 3.7-.1 1 .2 1.6 1 1.6.7 0 1.2-.4 1.5-1.3.4-1.2.5-3.3.5-4.6 0-1.1-.9-.4-.9-1.4 0-.5.3-.9 1.8-.9 1.9 0 1.8.6 1.8.9 0 1-.8.3-1 1.5l-.2 2.9zM67.2 233.6c0-.3-.1-.4-.3-.4-.8 0-1 2.1-1 3-.1 1.5-.4 1.9-1.8 2-.4 0-.8-.1-.8-.7 0-.7.5-2.8.5-4 0-.3-.1-.4-.3-.4h-.1c-.2 0-.3-.2-.3-.4 0-.4.3-.7.6-.8.5-.3 1.5-.8 2-.8.7 0 .4 1.2.7 1.2.3 0 1.2-1.2 2.2-1.2.6 0 1.3.5 1.3 1.4 0 1-.4 2.7-.4 3.5 0 .6.5.2.5.8 0 1-1.7 1.6-2.3 1.6-.5 0-.8-.3-.8-.9 0-.7.2-1.6.3-2.4v-1.5zM73.3 235.4c0 .2 0 .5.2.5h.3c.2 0 .2.2.2.4 0 1.2-1.8 1.8-2.6 1.8-.6 0-1-.3-.9-1.4.2-2.3.5-4.8.6-6.5 0-.2 0-.3-.2-.3h-.3c-.2 0-.3-.1-.3-.4 0-.7.5-.9 1-1.1.5-.2 1.3-.4 1.9-.4.4 0 .6.1.6.7l-.5 6.7zM80.5 232.4c0 1.7-1.5 3-2.8 3-.2 0-.4 0-.4.3 0 .4.4.6.7.6.8 0 1.4-.8 1.8-.8.2 0 .4.3.4.6 0 .7-.8 1.2-1.2 1.5-.6.3-1.2.6-1.9.6-1.4 0-2.6-.7-2.5-2.6.1-2.9 2.3-4.8 4.3-4.8.8 0 1.6.4 1.6 1.6zm-3.2 1.5c0 .2 0 .4.2.4.3 0 .9-1 .8-1.7 0-.2-.1-.4-.3-.4-.4-.1-.7 1.2-.7 1.7zM87.2 231.4c0 .8-.2 2.1-.3 3.6 0 .2-.1.7 0 .9 0 .2.1.2.2.2.2 0 .3.1.3.3 0 .9-1.6 1.7-2.3 1.7-1 0-.5-1.2-.9-1.2-.3 0-.8 1.3-2 1.3-1 0-1.5-1.1-1.4-2.3.1-2.5 1.3-4.9 3.1-5.1.8-.1 1.1.6 1.4.6.1 0 .3-.2.4-.2.3-.2.6-.4 1-.4s.6.2.5.6zm-2.2 1.4c0-.2 0-.5-.2-.4-.6.1-1.3 2.1-1.3 3 0 .2 0 .6.3.5.5 0 1.2-2.4 1.2-3.1zM92.2 233c-.4 0-.4-.8-.9-.8-.2 0-.3.2-.3.4 0 .9 1.6 1.6 1.6 3.3 0 1.7-1.6 2.4-2.8 2.4-.7 0-2-.3-2-1.4 0-.4.2-1 .6-1 .5 0 .4.9 1 .9.2 0 .5-.2.5-.5 0-.7-1.4-1.5-1.4-3 0-1.7 1.5-2.4 2.7-2.4.6 0 1.7.2 1.7 1.2-.1.3-.3.9-.7.9zM96.5 231.4c0 .2-.1.6 0 .6.2 0 1.1-1.2 2.1-1.2.8 0 1.3.5 1.3 1.5 0 1.1-.4 2.6-.4 3.4 0 .7.6.1.6.8-.1 1-1.7 1.8-2.4 1.7-.6 0-.8-.3-.8-1.1 0-.9.5-2.7.5-3.4 0-.3-.1-.6-.3-.6-.8 0-1.1 2.8-1.1 3.4 0 .3-.1.8-.3 1.1-.3.4-1 .6-1.4.6-.5 0-1-.2-1-.8 0-.4.2-1.1.2-1.5.1-1.1.7-4.1.7-5.5 0-.3 0-.5-.3-.5s-.5 0-.5-.4c0-.6.6-.9 1-1.1.5-.2 1.1-.4 1.7-.4.4 0 .8.1.8.7 0 .5-.1 1.3-.2 1.8l-.2.9zM101.3 234c0-.3.1-.6.1-.8 0-.2-.1-.3-.2-.3-.2 0-.4 0-.4-.5 0-.6.5-.9.9-1.1.5-.3 1.4-.6 1.9-.6.3 0 .5.2.5.6 0 .6-.2 1.8-.2 2 0 .2-.2 1.8-.3 2.3 0 .3.1.3.3.3.2 0 .4 0 .4.3 0 1.1-1.8 1.7-2.4 1.7-.4 0-.9-.3-.9-.9 0-.3 0-.5.1-.8l.2-2.2zm0-4.5c0-1.1 1.6-1.7 2.3-1.7.4 0 .9.2.9.8 0 1-1.6 1.7-2.3 1.7-.3-.1-.9-.2-.9-.8zM109 233.6c0-.3-.1-.4-.3-.4-.8 0-1 2.1-1 3-.1 1.5-.4 1.9-1.8 2-.4 0-.8-.1-.8-.7 0-.7.5-2.8.5-4 0-.3-.1-.4-.3-.4h-.1c-.2 0-.3-.2-.3-.4 0-.4.3-.7.6-.8.5-.3 1.5-.8 2-.8.7 0 .4 1.2.7 1.2.3 0 1.2-1.2 2.2-1.2.6 0 1.3.5 1.3 1.4 0 1-.4 2.7-.4 3.5 0 .6.5.2.5.8 0 1-1.7 1.6-2.3 1.6-.5 0-.8-.3-.8-.9 0-.7.2-1.6.3-2.4v-1.5zM116.8 236.4c.8 0 1.4.5 1.4 1.5 0 2-2 2.5-3.3 2.5-.8 0-2.6-.2-2.6-1.6 0-.5.3-.6.3-.8 0-.2-.4-.4-.4-1.1 0-.6.4-1.1.8-1.3.1-.1.2-.1.2-.3 0-.1-.1-.2-.1-.3-.4-.4-.6-.8-.6-1.5 0-2 1.8-2.9 3.1-2.9.2 0 .4 0 .6.1.2 0 .4.1.6.1.6 0 .6-.9 1-.9.3 0 .8.6.8 1s-.2.6-.2.8c0 .1.3.5.3 1.2-.1 2.3-1.8 2.9-3.2 2.9-.5 0-.9-.1-1-.1-.1 0-.3.1-.3.3 0 .5.7.4 1 .4h1.6zm-.9 2.5c0-.2-.1-.3-.2-.2-.9.2-1.8-.1-2-.1-.1 0-.1.2-.1.3 0 .6.9.7 1.2.7.2-.1 1.1-.2 1.1-.7zm.2-6.4c0-.3-.1-.5-.3-.5-.6 0-.7 1.6-.8 2.2 0 .3.1.5.4.5.6-.1.7-1.6.7-2.2zM124.2 240.7c-1 0-2-.7-2-2.1 0-.9.5-1.4 1.1-1.4.5 0 1 .4 1 1.1v.7c0 .2 0 .3.2.3.4 0 .5-.7.5-1 0-1-1.1-4.7-1.5-4.7-.2 0-.4.5-.6.5-.3 0-.5-.5-.5-.8.1-.9 1.9-2.5 2.6-2.5.6 0 .8.7 1.1 1.3.3.9.8 3.4 1.1 3.4.3.1.4-1.4.4-1.6 0-1-.5-1.2-.5-1.9s.5-1.1 1-1.1c.9 0 1 1 1 1.9-.1 3-2 7.9-4.9 7.9zM129.3 235.4c0-2.7 1.7-4.7 3.8-4.7 1.4 0 2.6.9 2.6 2.8 0 2.7-1.7 4.7-3.8 4.7-1.4 0-2.6-1-2.6-2.8zm2.8-1.8c-.1.8-.2 1.7-.2 2.5 0 .3.1.6.4.6.5 0 .6-.8.6-1.3.1-.7.3-1.8.3-2.5 0-.3-.1-.7-.4-.7-.5 0-.6.9-.7 1.4zM142.7 234.8c0 .2-.1.4-.1.6 0 .3.1.4.3.4.3 0 .4 0 .4.4 0 1.1-1.9 1.8-2.6 1.8-.7 0-.4-1.2-.8-1.2-.2 0-1.2 1.3-2.4 1.2-.6 0-1-.5-1-1.4 0-.8.2-1.9.3-2.9 0-.4.1-.7-.3-.7-.2 0-.5-.1-.5-.4 0-.6.6-1 1-1.2.5-.3 1.2-.6 1.8-.6.4 0 .6.3.6.8s-.2 1.9-.3 2.6c0 .2-.3 1.6.2 1.6.4 0 .6-.6.7-.9.5-1.3.2-3.1.8-3.6.3-.4 1.1-.5 1.5-.5.3 0 .6.1.6.6 0 .2 0 .5-.1.7l-.1 2.7zM147 236.1c.1 1.4-.4 1.9-1.9 2-.4 0-.9-.1-.9-.7 0-.8.4-2.6.5-3.9 0-.4 0-.5-.3-.5s-.5-.1-.5-.6c0-.8.9-1 1.3-1.2.3-.2.7-.4 1-.4.7 0 .4 1.3.7 1.3.3 0 .3-1.3 1.3-1.3.7 0 1.2.8 1.2 1.7 0 .9-.3 1.7-1.1 1.7-.4 0-.6-.2-.8-.6 0-.1-.1-.3-.2-.3-.2 0-.2.6-.2.7l-.1 2.1zM157.3 233.2c0 .4 0 .5-.3.5s-.3.1-.4.5l-.4 4.3c0 .6.1 1-.3 1.4-.4.3-1.3.6-1.7.6-.4 0-1-.2-1-.8 0-.2.1-.4.2-.5.3-.3.2-.4.3-.9.2-1.1.5-3.1.5-4.2 0-.4-.3-.4-.5-.4-.4 0-.4 0-.4-.3v-.9c0-.3 0-.4.2-.4.3 0 .6.1.6-.2 0-.3-.5-.5-.5-1.7 0-1.6 1.3-2.4 2.4-2.4.7 0 1.5.5 1.5 1.5 0 .7-.3 1.2-.9 1.2-.4 0-.7-.2-1-.5-.1-.1-.3-.3-.4-.3-.2 0-.3.2-.3.4 0 .4.2.6.5.7.5.2 1.1.4 1.3 1 .1.3.1.2.3.2.4 0 .4 0 .4.5l-.1.7zM164.4 234.8c0 .2-.1.4-.1.6 0 .3.1.4.3.4.3 0 .4 0 .4.4 0 1.1-1.9 1.8-2.6 1.8-.7 0-.4-1.2-.8-1.2-.2 0-1.2 1.3-2.4 1.2-.6 0-1-.5-1-1.4 0-.8.2-1.9.3-2.9 0-.4.1-.7-.3-.7-.2 0-.5-.1-.5-.4 0-.6.6-1 1-1.2.5-.3 1.2-.6 1.8-.6.4 0 .6.3.6.8s-.2 1.9-.3 2.6c0 .2-.3 1.6.2 1.6.4 0 .6-.6.7-.9.5-1.3.2-3.1.8-3.6.3-.4 1.1-.5 1.5-.5.3 0 .6.1.6.6 0 .2 0 .5-.1.7l-.1 2.7zM168.4 235.4c0 .2 0 .5.2.5h.3c.2 0 .2.2.2.4 0 1.2-1.8 1.8-2.6 1.8-.6 0-1-.3-.9-1.4.2-2.3.5-4.8.6-6.5 0-.2 0-.3-.2-.3h-.3c-.2 0-.3-.1-.3-.4 0-.7.5-.9 1-1.1.5-.2 1.3-.4 1.9-.4.4 0 .6.1.6.7l-.5 6.7zM172.7 235.4c0 .2 0 .5.2.5h.3c.2 0 .2.2.2.4 0 1.2-1.8 1.8-2.6 1.8-.6 0-1-.3-.9-1.4.2-2.3.5-4.8.6-6.5 0-.2 0-.3-.2-.3h-.3c-.2 0-.3-.1-.3-.4 0-.7.5-.9 1-1.1.5-.2 1.3-.4 1.9-.4.4 0 .6.1.6.7l-.5 6.7zM178.1 234.1c0-.2 0-.6-.1-.8-.1-.2-.2-.2-.3-.2-.3 0-.5-.1-.5-.5 0-.6.6-.8 1-1 .4-.2 1.2-.7 1.6-.7.4 0 .5.3.5.6 0 .2 0 .4.2.4.3 0 .8-1 1.9-1 1.1 0 1.5 1.5 1.5 2.6 0 2-1.1 4.7-2.9 4.7-.1 0-.3 0-.4-.1-.1 0-.2-.1-.3-.1-.3 0-.2 1-.1 1.2.1.3.6.3.6.7 0 .7-.8.8-1.2.8-.6 0-2.4-.1-2.4-1.2 0-.3.1-.4.3-.6.2-.3.3-.4.3-.8l.3-4zm2.1 2.2c0 .3 0 .4.3.4.7 0 1-2.4 1-3 0-.3 0-.7-.4-.7-.6-.1-.9 2.7-.9 3.3zM184.4 235.4c0-2.7 1.7-4.7 3.8-4.7 1.4 0 2.6.9 2.6 2.8 0 2.7-1.7 4.7-3.8 4.7-1.4 0-2.6-1-2.6-2.8zm2.8-1.8c-.1.8-.2 1.7-.2 2.5 0 .3.1.6.4.6.5 0 .6-.8.6-1.3.1-.7.3-1.8.3-2.5 0-.3-.1-.7-.4-.7-.5 0-.6.9-.7 1.4zM194.2 234.9c-.1.6 0 1 .3 1s.5-.3.6-.3c.2 0 .3.3.3.5 0 1.1-2.1 2-2.8 2-.7 0-1.1-.4-1.1-1.3 0-.4.1-.9.1-1.3l.3-2.5c.1-.5 0-.6-.4-.6-.3 0-.4-.1-.4-.5 0-.6.2-.9.7-1 .4-.1.4-.2.5-.8.1-.4.2-.8.5-1 .4-.2 1-.3 1.4-.3.3 0 .4.2.4.5s-.1 1.1-.1 1.3c0 .4.4.3.7.3.1 0 .3 0 .3.3 0 .2 0 .4-.1.6 0 .3 0 .6-.3.6-.8 0-.8 0-.9 1.2v1.3zM201.9 232.4c0 1.7-1.5 3-2.8 3-.2 0-.4 0-.4.3 0 .4.4.6.7.6.8 0 1.4-.8 1.8-.8.2 0 .4.3.4.6 0 .7-.8 1.2-1.2 1.5-.6.3-1.2.6-1.9.6-1.4 0-2.6-.7-2.5-2.6.1-2.9 2.3-4.8 4.3-4.8.9 0 1.6.4 1.6 1.6zm-3.2 1.5c0 .2 0 .4.2.4.3 0 .9-1 .8-1.7 0-.2-.1-.4-.3-.4-.4-.1-.7 1.2-.7 1.7zM206.6 233.6c0-.3-.1-.4-.3-.4-.8 0-1 2.1-1 3-.1 1.5-.4 1.9-1.8 2-.4 0-.8-.1-.8-.7 0-.7.5-2.8.5-4 0-.3-.1-.4-.3-.4h-.1c-.2 0-.3-.2-.3-.4 0-.4.3-.7.6-.8.5-.3 1.5-.8 2-.8.7 0 .4 1.2.7 1.2.3 0 1.2-1.2 2.2-1.2.6 0 1.3.5 1.3 1.4 0 1-.4 2.7-.4 3.5 0 .6.5.2.5.8 0 1-1.7 1.6-2.3 1.6-.5 0-.8-.3-.8-.9 0-.7.2-1.6.3-2.4v-1.5zM212.8 234.9c-.1.6 0 1 .3 1s.5-.3.6-.3c.2 0 .3.3.3.5 0 1.1-2.1 2-2.8 2-.7 0-1.1-.4-1.1-1.3 0-.4.1-.9.1-1.3l.3-2.5c.1-.5 0-.6-.4-.6-.3 0-.4-.1-.4-.5 0-.6.2-.9.7-1 .4-.1.4-.2.5-.8.1-.4.2-.8.5-1 .4-.2 1-.3 1.4-.3.3 0 .4.2.4.5s-.1 1.1-.1 1.3c0 .4.4.3.7.3.1 0 .3 0 .3.3 0 .2 0 .4-.1.6 0 .3 0 .6-.3.6-.8 0-.8 0-.9 1.2v1.3zM215.3 234c0-.3.1-.6.1-.8 0-.2-.1-.3-.2-.3-.2 0-.4 0-.4-.5 0-.6.5-.9.9-1.1.5-.3 1.4-.6 1.9-.6.3 0 .5.2.5.6 0 .6-.2 1.8-.2 2 0 .2-.2 1.8-.3 2.3 0 .3.1.3.3.3.2 0 .4 0 .4.3 0 1.1-1.8 1.7-2.4 1.7-.4 0-.9-.3-.9-.9 0-.3 0-.5.1-.8l.2-2.2zm-.1-4.5c0-1.1 1.6-1.7 2.3-1.7.4 0 .9.2.9.8 0 1-1.6 1.7-2.3 1.7-.3-.1-.9-.2-.9-.8zM225 231.4c0 .8-.2 2.1-.3 3.6 0 .2-.1.7 0 .9 0 .2.1.2.2.2.2 0 .3.1.3.3 0 .9-1.6 1.7-2.3 1.7-1 0-.5-1.2-.9-1.2-.3 0-.8 1.3-2 1.3-1 0-1.5-1.1-1.4-2.3.1-2.5 1.3-4.9 3.1-5.1.8-.1 1.1.6 1.4.6.1 0 .3-.2.4-.2.3-.2.6-.4 1-.4s.6.2.5.6zm-2.2 1.4c0-.2 0-.5-.2-.4-.6.1-1.3 2.1-1.3 3 0 .2 0 .6.3.5.5 0 1.2-2.4 1.2-3.1zM228.7 235.4c0 .2 0 .5.2.5h.3c.2 0 .2.2.2.4 0 1.2-1.8 1.8-2.6 1.8-.6 0-1-.3-.9-1.4.2-2.3.5-4.8.6-6.5 0-.2 0-.3-.2-.3h-.3c-.2 0-.3-.1-.3-.4 0-.7.5-.9 1-1.1.5-.2 1.3-.4 1.9-.4.4 0 .6.1.6.7l-.5 6.7z"/></g></svg>